<svg xmlns:xlink="http://www.w3.org/1999/xlink" xmlns="http://www.w3.org/2000/svg" class="lozad" style="width:35.516px; height: 25px; margin-right:20.800px; fill: #ddd;" alt="facebook icon" data-loaded="true" width="246.65"  height="418.45" ><defs><symbol id="svg_ico_facebook">
    <svg xmlns="http://www.w3.org/2000/svg" id="Layer_2" data-name="Layer 2" viewBox="0 0 246.65 418.45">
      <g id="Layer_1-2" data-name="Layer 1">
        <g id="Icon_feather-facebook" data-name="Icon feather-facebook">
          <path d="m151.96,418.45h-76.35c-10.13,0-18.34-8.21-18.34-18.34v-134.37H18.34c-10.13,0-18.34-8.21-18.34-18.34v-76.36c0-10.13,8.21-18.34,18.34-18.34h38.93v-38.93C57.27,51.04,108.31,0,171.05,0h57.27c10.13,0,18.34,8.21,18.34,18.34v76.35c0,10.13-8.21,18.34-18.34,18.34h-57.27c-.41,0-.75.34-.75.75v38.93h58.02c5.65,0,10.98,2.6,14.45,7.05,3.47,4.45,4.7,10.25,3.34,15.73l-19.09,76.35c-2.04,8.16-9.38,13.89-17.79,13.89h-38.93v134.37c0,10.13-8.21,18.34-18.34,18.34Zm-58.02-36.67h39.68v-134.37c0-10.13,8.21-18.34,18.34-18.34h42.95l9.92-39.68h-52.87c-10.13,0-18.34-8.21-18.34-18.34v-57.27c0-20.64,16.79-37.43,37.43-37.43h38.93v-39.68h-38.93c-42.52,0-77.11,34.59-77.11,77.11v57.27c0,10.13-8.21,18.34-18.34,18.34h-38.93v39.68h38.93c10.13,0,18.34,8.21,18.34,18.34v134.37Z"></path>
        </g>
      </g>
    </svg>
  </symbol></defs>
                     <use xlink:href="#svg_ico_facebook" fill="#DDDDDD"></use>
                  </svg>