<svg xmlns:xlink="http://www.w3.org/1999/xlink" xmlns="http://www.w3.org/2000/svg" viewBox="0 0 0 0" width="100"  height="100" >
  <symbol id="svg_ico_phone">
    <svg xmlns="http://www.w3.org/2000/svg" id="Layer_2" data-name="Layer 2" viewBox="0 0 470.8 470.45" style="" fill="#555555">
      <g id="Layer_1-2" data-name="Layer 1" fill="#555555">
        <g id="c" fill="#555555">
          <g id="d" fill="#555555">
            <path d="m431.37,470.45h-1.1c-.4,0-.8,0-1.3-.1-74.17-7.99-146.44-33.74-209.22-74.27-57.9-36.83-108.2-87.04-145.14-145.14C33.89,188.26,8.14,115.99.15,41.92v-.3c-.9-10.08,2.2-19.76,8.68-27.45C15.72,5.99,25.81,1,37.19.1c.4,0,.8-.1,1.2-.1h74.86c18.97,0,35.24,13.97,37.83,32.54v.2c3.19,24.46,9.28,48.71,17.97,72.07,5.19,13.87,1.8,29.65-8.58,40.13l-31.54,31.54c-3.59,3.59-4.39,9.18-1.8,13.58,36.33,63.69,89.24,116.49,153.02,152.72,1.7.9,3.59,1.4,5.49,1.4,3.09,0,5.89-1.2,8.09-3.29l31.44-31.44c7.19-7.19,16.77-11.08,26.95-11.08,4.69,0,9.28.8,13.68,2.5,22.16,8.38,46.32,14.37,71.97,17.87,19.07,2.6,33.24,19.17,33.04,38.63-.2,18.37,0,74.17,0,74.67,0,10.28-3.89,19.86-11.18,27.15-7.19,7.19-17.47,11.28-28.25,11.28Z" fill="#555555"></path>
          </g>
        </g>
      </g>
    </svg>
  </symbol>

  <symbol id="svg_ico_menu">
  <svg xmlns="http://www.w3.org/2000/svg" id="Layer_2" data-name="Layer 2" viewBox="0 0 500 434.2" width="21px" height="20px">
    <g id="Layer_1-2" data-name="Layer 1">
      <g>
        <path id="Path_1119" data-name="Path 1119" d="m468.36,63.29H31.64C14.21,63.18.1,49.08,0,31.64h0C.1,14.21,14.21.1,31.64,0h436.71c17.43.1,31.54,14.21,31.64,31.64h0c0,17.48-14.17,31.64-31.64,31.64Z"></path>
        <path id="Path_1119-2" data-name="Path 1119" d="m468.36,434.2H31.64c-17.43-.1-31.54-14.21-31.64-31.64h0c.1-17.43,14.21-31.54,31.64-31.64h436.71c17.43.1,31.54,14.21,31.64,31.64h0c0,17.48-14.17,31.64-31.64,31.64Z"></path>
        <path id="Path_1119-3" data-name="Path 1119" d="m468.36,248.74H31.64c-17.43-.1-31.54-14.21-31.64-31.64h0c.1-17.43,14.21-31.54,31.64-31.64h436.71c17.43.1,31.54,14.21,31.64,31.64h0c0,17.48-14.17,31.64-31.64,31.64Z"></path>
      </g>
    </g>
  </svg>
  </symbol>

  <symbol id="svg_ico_location">
    <svg xmlns="http://www.w3.org/2000/svg" style="" fill="#FFAF13" width="23px" height="21px" viewBox="0 0 298.04 500"><defs><style>.e{fill:#222;}</style></defs><g id="a" fill="#FFAF13"></g><g id="b" fill="#FFAF13"><g id="c" fill="#FFAF13"><g fill="#FFAF13"><path d="M237.3,461.62H60.74c-10.58,0-19.19,8.61-19.19,19.19s8.61,19.19,19.19,19.19H237.3c10.58,0,19.19-8.61,19.19-19.19s-8.61-19.19-19.19-19.19Z" fill="#FFAF13"></path><g id="d" fill="#FFAF13"><path class="e" d="M149.02,419.49l-12.74-14.11C130.71,399.21,0,253.31,0,149.01,.08,66.71,66.86,0,148.9,0h.35c82.12,.07,148.86,66.94,148.79,149.03,0,104.27-130.7,250.18-136.27,256.35l-12.74,14.11Zm-.12-385.15c-63.13,0-114.5,51.33-114.56,114.47,0,73.8,82.4,179.93,114.68,218.68,32.28-38.75,114.67-144.85,114.67-218.48,.07-63.18-51.29-114.6-114.46-114.67h-.34Zm.12,178.93c-35.44,0-64.27-28.84-64.27-64.28s28.83-64.26,64.27-64.26,64.26,28.82,64.26,64.26-28.83,64.28-64.26,64.28Zm0-94.19c-16.5,0-29.93,13.41-29.93,29.91s13.43,29.94,29.93,29.94,29.91-13.44,29.91-29.94-13.41-29.91-29.91-29.91Z" fill="#222222"></path></g></g></g></g></svg>
  </symbol>
  
  <symbol id="svg_ico_caret_down">
    <svg xmlns="http://www.w3.org/2000/svg" id="a" style="width:11px; height:11px" viewBox="0 0 500 280.42"><path d="M8.83,8.99C3.12,14.7,0,22.36,0,30.41s3.25,15.71,8.83,21.43l219.73,219.73c5.71,5.71,13.38,8.83,21.43,8.83,8.05,0,15.71-3.25,21.43-8.83L491.14,51.84c7.66-7.66,10.65-18.83,7.79-29.35-2.86-10.52-11.04-18.57-21.43-21.43-10.52-2.86-21.69,.13-29.35,7.79L249.99,207.29,51.69,8.99C45.97,3.27,38.31,.16,30.26,.16c-8.05,0-15.71,3.12-21.43,8.83h0Z"></path></svg>
  </symbol>
  
  <symbol id="svg_ico_rb_logo">
    <svg xmlns="http://www.w3.org/2000/svg" id="Layer_1" data-name="Layer 1" viewBox="0 0 64.2 68.06"><defs><style>.cls-1{fill:#fed250;fill-rule:evenodd;}.cls-2{fill:none;}</style></defs><title>HOME</title><g id="Layer_1-2" data-name="Layer 1-2"><g id="Layer_1-2-2" data-name="Layer 1-2-2"><path class="cls-1" d="M2,17.45c0,9,3.7,18.7,7.91,26.4,4,7.4,10.9,17.7,18.6,21.2s16.2-7,20.3-12.9A72.19,72.19,0,0,0,61,25.25c2.5-11-.3-17.21-10.7-20.31A61.54,61.54,0,0,0,19,3.44C11.92,5,1.61,7.74,2,17.45Z" fill="#FED250"></path><path d="M31.92,67.85a9.78,9.78,0,0,1-4.1-.9c-8.7-4-16-15.6-19.61-22.1C4.51,38,0,27.65,0,17.45c-.5-11.91,12.51-14.71,18.81-16A64.72,64.72,0,0,1,51.22,3c11.1,3.3,14.9,10.31,12.1,22.81a73.57,73.57,0,0,1-12.5,27.6Q40.32,67.85,31.92,67.85Zm0-63.61a57.14,57.14,0,0,0-12.3,1.3C10,7.54,3.81,10.35,4.11,17.35v.1c0,9.3,4.2,19,7.71,25.4,2.6,4.9,9.7,16.7,17.7,20.4,4.4,2.1,10.7-2.3,17.8-12.2a70.08,70.08,0,0,0,11.9-26.2c2.3-10.3-.2-15.2-9.3-17.91a61.36,61.36,0,0,0-18-2.7Z"></path><path class="cls-2" d="M44.42,27.65a3.17,3.17,0,0,0,.2-4.5l-.2-.2a3.46,3.46,0,0,0-2.6-.9h-5.3v6.6h5.2A3.62,3.62,0,0,0,44.42,27.65Z" fill="none"></path><path class="cls-2" d="M25.32,23.25a3.36,3.36,0,0,0-2.8-1.1h-4.8v7.6h4.7a3.61,3.61,0,0,0,2.8-1,3.25,3.25,0,0,0,1.1-2.8A3.52,3.52,0,0,0,25.32,23.25Z" fill="none"></path><path class="cls-2" d="M42.22,33.05h-5.5v7.1h5.7a3.83,3.83,0,0,0,2.9-1,3.19,3.19,0,0,0,1-2.6,3.54,3.54,0,0,0-1-2.6A4.91,4.91,0,0,0,42.22,33.05Z" fill="none"></path><path d="M50.22,33.25a7.76,7.76,0,0,0-3.4-2.5v-.3a5.82,5.82,0,0,0,2.6-2.3,6.5,6.5,0,0,0-.1-7.2,8.33,8.33,0,0,0-3-2.6,9.9,9.9,0,0,0-4.1-1H28.32a9,9,0,0,1,4.7,7.8c.1.5.6,5.3-5.6,8.7l7.5,11h7.7a11.3,11.3,0,0,0,4.5-.9,7.63,7.63,0,0,0,3.2-2.7,6.89,6.89,0,0,0,1.2-3.9A6.68,6.68,0,0,0,50.22,33.25Zm-13.6-11.2h5.3a4.11,4.11,0,0,1,2.6.9,2.9,2.9,0,0,1,1,2.3,3.49,3.49,0,0,1-1,2.4,3.32,3.32,0,0,1-2.7.9h-5.2Zm8.6,17.2a3.83,3.83,0,0,1-2.9,1h-5.7v-7.2h5.5a4.06,4.06,0,0,1,3,1,3.19,3.19,0,0,1,1,2.6A2.84,2.84,0,0,1,45.22,39.25Z"></path><path class="cls-2" d="M25.32,23.25a3.36,3.36,0,0,0-2.8-1.1h-4.8v7.6h4.7a3.61,3.61,0,0,0,2.8-1,3.25,3.25,0,0,0,1.1-2.8A3.52,3.52,0,0,0,25.32,23.25Z" fill="none"></path><path class="cls-2" d="M25.32,23.25a3.36,3.36,0,0,0-2.8-1.1h-4.8v7.6h4.7a3.61,3.61,0,0,0,2.8-1,3.25,3.25,0,0,0,1.1-2.8A3.52,3.52,0,0,0,25.32,23.25Z" fill="none"></path><path d="M25.52,33.35l.7-.3c6.2-3,5.5-7.5,5.5-7.7v-.1a8.18,8.18,0,0,0-8.1-8h-11v22.9h0v.3c.8,4,5,4.4,5.1,4.4h0v-4.7h0v-5.7h2.4l7,10.3h6.2Zm-3.1-3.6h-4.7v-7.6h4.8a3.55,3.55,0,0,1,2.8,1.1,3.39,3.39,0,0,1,1,2.7,3.86,3.86,0,0,1-1.1,2.7,3.25,3.25,0,0,1-2.8,1.1Z"></path></g></g></svg>
  </symbol>
   
  <symbol id="svg_ico_close">
    <svg xmlns="http://www.w3.org/2000/svg" viewBox="0 0 500.04 500"><g id="a"></g><g id="b"><g id="c"><path id="d" d="M309.22,249.99L487.78,71.29c15.83-16.83,15.03-43.3-1.8-59.13-16.14-15.19-41.34-15.15-57.43,.09L249.99,190.82,71.43,12.26C55.09-4.09,28.6-4.09,12.26,12.26c-16.34,16.34-16.34,42.83,0,59.18L190.82,249.99,12.31,428.53c-16.34,16.34-16.34,42.83,0,59.18,16.34,16.34,42.83,16.34,59.18,0l178.56-178.56,178.51,178.59c16.35,16.36,42.86,16.36,59.22,.01,16.36-16.35,16.36-42.86,.01-59.22h0l-178.56-178.53Z"></path></g></g></svg>
  </symbol>


</svg>