<svg xmlns:xlink="http://www.w3.org/1999/xlink" xmlns="http://www.w3.org/2000/svg" class="lozad" style="width:35.516px; height: 30px; margin-right:2.1rem; fill: #ddd;" alt="instagram icon" width="400"  height="480" ><defs><symbol id="svg_ico_instagram">
    <svg xmlns="http://www.w3.org/2000/svg" id="Layer_1" data-name="Layer 2" viewBox="0 0 400 480">
      <g id="Layer_1-2" data-name="Layer 1">
        <path id="Icon_awesome-instagram" data-name="Icon awesome-instagram" d="m209.32,101.94c-59.25,0-107.28,48.03-107.28,107.28s48.03,107.28,107.28,107.28,107.28-48.03,107.28-107.28c.1-59.15-47.78-107.18-106.93-107.28-.12,0-.23,0-.35,0Zm0,177.03c-38.52,0-69.74-31.23-69.74-69.74s31.23-69.74,69.74-69.74,69.74,31.23,69.74,69.74h0c-.07,38.49-31.26,69.67-69.74,69.74h0Zm136.69-181.42c0,13.82-11.2,25.02-25.02,25.03s-25.02-11.2-25.03-25.02c0-13.82,11.2-25.02,25.02-25.03h0c13.79-.03,24.99,11.12,25.02,24.91,0,.04,0,.08,0,.12Zm71.05,25.4c-1.59-33.52-9.24-63.21-33.8-87.67C358.8,10.81,329.11,3.16,295.59,1.47,261.04-.49,157.5-.49,122.95,1.47c-33.43,1.59-63.12,9.24-87.67,33.71C10.72,59.65,3.16,89.34,1.47,122.86c-1.97,34.55-1.97,138.09,0,172.64,1.59,33.52,9.24,63.21,33.8,87.67s54.15,32.12,87.67,33.8c34.55,1.97,138.09,1.97,172.64,0,33.52-1.59,63.21-9.24,87.67-33.8,24.46-24.46,32.12-54.15,33.8-87.67,1.97-34.55,1.97-138,0-172.55h0Zm-44.63,209.62c-7.18,18.2-21.58,32.6-39.78,39.78-27.54,10.92-92.9,8.4-123.34,8.4s-95.89,2.43-123.34-8.4c-18.2-7.18-32.6-21.58-39.78-39.78-10.92-27.54-8.4-92.9-8.4-123.34s-2.43-95.89,8.4-123.34c7.18-18.2,21.58-32.6,39.78-39.78,27.54-10.92,92.9-8.4,123.34-8.4s95.89-2.43,123.34,8.4c18.2,7.18,32.6,21.58,39.78,39.78,10.92,27.54,8.4,92.9,8.4,123.34s2.52,95.89-8.4,123.35Z"></path>
      </g>
    </svg>
  </symbol></defs>
                     <use xlink:href="#svg_ico_instagram" fill="#DDDDDD"></use>
                  </svg>