<svg xmlns="http://www.w3.org/2000/svg">

<symbol id="svg_ico_close" viewBox="0 0 500.04 500">
   <svg xmlns:xlink="http://www.w3.org/1999/xlink" xmlns="http://www.w3.org/2000/svg">
   <svg xmlns="http://www.w3.org/2000/svg" viewBox="0 0 500.04 500"><g>
   <path d="M309.22,249.99L487.78,71.29c15.83-16.83,15.03-43.3-1.8-59.13-16.14-15.19-41.34-15.15-57.43,.09L249.99,190.82,71.43,12.26C55.09-4.09,28.6-4.09,12.26,12.26c-16.34,16.34-16.34,42.83,0,59.18L190.82,249.99,12.31,428.53c-16.34,16.34-16.34,42.83,0,59.18,16.34,16.34,42.83,16.34,59.18,0l178.56-178.56,178.51,178.59c16.35,16.36,42.86,16.36,59.22,.01,16.36-16.35,16.36-42.86,.01-59.22h0l-178.56-178.53Z"></path>
   </g>
   </svg></svg>
</symbol>

<symbol id="svg_ico_caret_down">
    <svg xmlns="http://www.w3.org/2000/svg" id="a"  viewBox="0 0 500 280.42"><path d="M8.83,8.99C3.12,14.7,0,22.36,0,30.41s3.25,15.71,8.83,21.43l219.73,219.73c5.71,5.71,13.38,8.83,21.43,8.83,8.05,0,15.71-3.25,21.43-8.83L491.14,51.84c7.66-7.66,10.65-18.83,7.79-29.35-2.86-10.52-11.04-18.57-21.43-21.43-10.52-2.86-21.69,.13-29.35,7.79L249.99,207.29,51.69,8.99C45.97,3.27,38.31,.16,30.26,.16c-8.05,0-15.71,3.12-21.43,8.83h0Z"></path></svg>
</symbol>

<symbol id="svg_ico_facebook">
    <svg xmlns="http://www.w3.org/2000/svg" id="Layer_2" data-name="Layer 2" viewBox="0 0 246.65 418.45">
      <g id="Layer_1-2" data-name="Layer 1">
        <g id="Icon_feather-facebook" data-name="Icon feather-facebook">
          <path d="m151.96,418.45h-76.35c-10.13,0-18.34-8.21-18.34-18.34v-134.37H18.34c-10.13,0-18.34-8.21-18.34-18.34v-76.36c0-10.13,8.21-18.34,18.34-18.34h38.93v-38.93C57.27,51.04,108.31,0,171.05,0h57.27c10.13,0,18.34,8.21,18.34,18.34v76.35c0,10.13-8.21,18.34-18.34,18.34h-57.27c-.41,0-.75.34-.75.75v38.93h58.02c5.65,0,10.98,2.6,14.45,7.05,3.47,4.45,4.7,10.25,3.34,15.73l-19.09,76.35c-2.04,8.16-9.38,13.89-17.79,13.89h-38.93v134.37c0,10.13-8.21,18.34-18.34,18.34Zm-58.02-36.67h39.68v-134.37c0-10.13,8.21-18.34,18.34-18.34h42.95l9.92-39.68h-52.87c-10.13,0-18.34-8.21-18.34-18.34v-57.27c0-20.64,16.79-37.43,37.43-37.43h38.93v-39.68h-38.93c-42.52,0-77.11,34.59-77.11,77.11v57.27c0,10.13-8.21,18.34-18.34,18.34h-38.93v39.68h38.93c10.13,0,18.34,8.21,18.34,18.34v134.37Z"></path>
        </g>
      </g>
    </svg>
</symbol>

<symbol id="health">
      <svg id="Layer_2" data-name="Layer 2" xmlns="http://www.w3.org/2000/svg" viewBox="0 0 500 466.18" style="fill:#7A7A7A;">
      <defs>
        <style>
          .cls-1 {
            fill: none;
            stroke:#7A7A7A;
            stroke-width:5;
            stroke-miterlimit:5;
          }
        </style>
      </defs>
      <g id="Layer_1-2" data-name="Layer 1">
        <g>
          <path class="cls-1" d="m437.48,369.33c-23.67,0-43.04,19.37-43.04,43.04s19.37,43.04,43.04,43.04,43.04-19.37,43.04-43.04-19.37-43.04-43.04-43.04Zm0,72.1c-16.14,0-29.59-13.45-29.59-29.59s12.91-29.59,29.59-29.59,29.59,13.45,29.59,29.59-13.45,29.59-29.59,29.59Z"/>
          <path class="cls-1" d="m437.48,393.54c-10.22,0-18.83,8.07-18.83,18.83s8.07,18.83,18.83,18.83,18.83-8.61,18.83-18.83-8.61-18.83-18.83-18.83Z"/>
          <path d="m97.45,309.08h0s-20.98,0-20.98,0c-3.23,0-5.38,2.15-5.38,5.38s2.15,5.38,5.38,5.38h20.98c17.22,0,33.36,7.53,43.04,20.98,8.07,10.76,11.84,24.75,10.76,40.89,0,3.23,2.15,5.38,4.84,5.92h.54c2.69,0,5.38-2.15,5.38-4.84,1.08-18.83-3.23-34.97-12.91-48.42-11.3-16.15-30.67-25.29-51.65-25.29Z"/>
          <path d="m437.48,358.04c-29.59,0-53.8,24.21-53.8,53.8s24.21,53.8,53.8,53.8,53.8-24.21,53.8-53.8-24.21-53.8-53.8-53.8Zm0,97.38c-23.67,0-43.04-19.37-43.04-43.04s19.37-43.04,43.04-43.04,43.04,19.37,43.04,43.04-19.37,43.04-43.04,43.04Z"/>
          <path d="m437.48,382.25c-16.68,0-29.59,13.45-29.59,29.59s13.45,29.59,29.59,29.59,29.59-13.45,29.59-29.59-12.91-29.59-29.59-29.59Zm0,48.96c-10.76,0-18.83-8.61-18.83-18.83,0-10.76,8.61-18.83,18.83-18.83s18.83,8.61,18.83,18.83-8.07,18.83-18.83,18.83Z"/>
          <path class="cls-1" d="m97.45,309.08h0s-20.98,0-20.98,0c-3.23,0-5.38,2.15-5.38,5.38s2.15,5.38,5.38,5.38h20.98c17.22,0,33.36,7.53,43.04,20.98,8.07,10.76,11.84,24.75,10.76,40.89,0,3.23,2.15,5.38,4.84,5.92h.54c2.69,0,5.38-2.15,5.38-4.84,1.08-18.83-3.23-34.97-12.91-48.42-11.3-16.15-30.67-25.29-51.65-25.29Z"/>
          <path class="cls-1" d="m222.81,248.82c0-11.84-9.68-20.98-20.98-20.98h-115.13c-11.84,0-20.99,9.15-20.99,20.98v1.61h157.1v-1.61Z"/>
          <path class="cls-1" d="m222.81,248.82c0-11.84-9.68-20.98-20.98-20.98h-115.13c-11.84,0-20.99,9.15-20.99,20.98v1.61h157.1v-1.61Z"/>
          <path d="m344.43,118.41c-1.96-4.89-3.03-9.96-3.03-15.28V34.24l66.48-24.41h0s66.48,24.41,66.48,24.41v75.02c0,14.99-8.42,28.01-21.59,40.59-12.46,11.9-28.94,23.01-44.89,34.28-9.07-6.41-10.97-7.87-19.55-14.36v11.32c0,.17-.02.32-.03.48,8,5.85,8.9,6.63,16.84,12.27h0c1.65,1.17,3.85,1.17,5.49,0,16.61-11.81,34.58-23.72,48.67-37.17,14.09-13.46,24.56-28.85,24.56-47.41V30.9c0-1.99-1.25-3.77-3.12-4.45L409.52.33h0c-.73-.29-1.52-.39-2.3-.3h0c-.33.07-.65.17-.97.3l-71.23,26.12c-1.87.68-3.11,2.46-3.12,4.45v72.23c0,5.35.89,10.43,2.47,15.28h10.06Z"/>
          <path class="cls-1" d="m445.01,313.92h-41.43c-7.54,0-13.99-4.31-17.22-11.3l-53.8-119.98h-11.3l24.21,146.34c2.15,10.76,0,22.06-7.53,30.67-7.53,8.61-17.75,13.45-29.05,13.45h-84.47c-18.29,0-33.36-15.06-33.36-33.36v-17.22c0-9.15,5.38-17.76,13.45-22.6l18.29-10.22v-28.52H65.16v13.45c.54,3.76,1.08,25.82-33.36,36.05-3.76,1.08-6.99,4.3-8.07,8.61l-12.91,55.42c-1.08,4.84,0,9.68,3.23,13.45,3.23,3.77,7.53,5.92,12.37,5.92h332.5c3.23-9.15,14.53-32.28,39.81-45.19h0c23.67-11.83,53.27-11.83,87.7.54l-31.21-31.21c-2.69-2.69-6.46-4.3-10.22-4.3Zm-283,68.87c0,2.69-2.69,4.84-5.38,4.84h-.54c-2.69-.54-4.84-2.69-4.84-5.92,1.08-16.14-2.69-30.13-10.76-40.89-9.69-13.45-25.82-20.98-43.04-20.98h-20.98c-3.23,0-5.38-2.15-5.38-5.38s2.15-5.38,5.38-5.38h20.98c20.98,0,40.35,9.15,51.65,25.29,9.69,13.45,13.99,29.59,12.91,48.42Z"/>
          <path d="m497.2,344.58l-34.44-34.96c-4.84-4.84-10.76-7.53-17.75-7.53h-41.43c-3.23,0-5.92-1.61-7.53-4.84l-51.65-115.67h31.21c.63,0,1.21-.1,1.75-.26,2.08-.6,3.43-2.29,3.6-4.64.01-.16.03-.32.03-.48v-46.27c0-3.23-2.15-5.38-5.38-5.38h-52.19c-13.45,0-24.75,10.22-26.9,23.13h-46.8c-3.23,0-5.38,2.15-5.38,5.39s2.15,5.38,5.38,5.38h47.35c1.08,8.07,5.92,15.06,12.91,19.37l24.75,152.26c1.61,8.07-.54,16.14-5.38,22.06-4.84,6.46-12.37,9.68-20.45,9.68h-84.47c-12.37,0-22.6-10.23-22.6-22.6v-16.68c0-5.38,3.23-10.76,7.53-13.45l20.98-11.84c1.61-1.08,2.69-2.69,2.69-4.84v-44.12c0-17.75-13.99-31.74-31.74-31.74h-114.6c-17.75,0-31.74,13.99-31.74,31.74v26.9s2.15,16.14-25.82,24.21c-7.53,2.15-13.99,8.61-15.6,16.68L.61,372.56c-1.61,8.07,0,16.14,4.84,22.6,4.84,5.92,11.84,9.68,19.91,9.68-.54,2.15-.54,4.84-.54,7.53,0,29.59,24.21,53.8,53.8,53.8s53.8-24.21,53.8-53.8c0-2.69,0-4.84-.54-7h230.81c2.15,0,4.3-1.61,5.38-3.76,0-.54,8.61-28.52,36.05-42.5,22.06-11.3,50.03-10.22,83.93,2.15,3.77,1.61,8.07,0,10.22-3.77,2.69-4.3,2.15-9.68-1.08-12.91Zm-189.92-189.91v-2.16c0-9.15,7.53-16.68,16.68-16.68h46.81v35.51h-46.81c-9.15,0-16.68-7.53-16.68-16.68Zm-241.57,94.15c0-11.84,9.15-20.98,20.99-20.98h115.13c11.3,0,20.98,9.15,20.98,20.98v1.61H65.7v-1.61Zm12.91,206.6c-23.67,0-43.04-19.37-43.04-43.04,0-2.69,0-4.84.54-7h13.45c-.54,2.15-1.08,4.84-1.08,7,0,16.68,13.45,29.59,29.59,29.59s29.59-13.45,29.59-29.59c0-2.69-.54-4.84-1.08-7h13.45c1.62,2.15,1.62,4.3,1.62,7,0,23.67-19.37,43.04-43.04,43.04Zm-18.3-43.58c0-2.69.54-4.84,1.61-7h34.44c1.08,2.15,1.61,4.84,1.61,7,0,10.76-8.61,18.83-18.83,18.83s-18.83-8.61-18.83-18.83Zm338.42-62.95h0c-25.29,12.91-36.58,36.05-39.81,45.19H26.43c-4.84,0-9.15-2.15-12.37-5.92-3.23-3.77-4.3-8.61-3.23-13.45l12.91-55.42c1.08-4.3,4.3-7.53,8.07-8.61,34.43-10.22,33.9-32.28,33.36-36.05v-13.45h157.65v28.52l-18.29,10.22c-8.07,4.84-13.45,13.45-13.45,22.6v17.22c0,18.29,15.06,33.36,33.36,33.36h84.47c11.3,0,21.52-4.84,29.05-13.45,7.53-8.61,9.68-19.91,7.53-30.67l-24.21-146.34h11.3l53.8,119.98c3.23,7,9.68,11.3,17.22,11.3h41.43c3.77,0,7.53,1.61,10.22,4.3l31.21,31.21c-34.43-12.37-64.03-12.37-87.7-.54Z"/>
          <g>
            <rect x="404.03" y="57.65" width="10" height="55"/>
            <rect x="404.03" y="57.65" width="10" height="55" transform="translate(323.89 494.18) rotate(-90)"/>
          </g>
        </g>
      </g>
    </svg>
</symbol>

<symbol id="svg_ico_location">
    <svg xmlns="http://www.w3.org/2000/svg" style="" fill="#FFAF13" width="23px" height="21px" viewBox="0 0 298.04 500"><defs><style>.e{fill:#222;}</style></defs><g id="a" fill="#FFAF13"></g><g id="b" fill="#FFAF13"><g id="c" fill="#FFAF13"><g fill="#FFAF13"><path d="M237.3,461.62H60.74c-10.58,0-19.19,8.61-19.19,19.19s8.61,19.19,19.19,19.19H237.3c10.58,0,19.19-8.61,19.19-19.19s-8.61-19.19-19.19-19.19Z" fill="#FFAF13"></path><g id="d" fill="#FFAF13"><path class="e" d="M149.02,419.49l-12.74-14.11C130.71,399.21,0,253.31,0,149.01,.08,66.71,66.86,0,148.9,0h.35c82.12,.07,148.86,66.94,148.79,149.03,0,104.27-130.7,250.18-136.27,256.35l-12.74,14.11Zm-.12-385.15c-63.13,0-114.5,51.33-114.56,114.47,0,73.8,82.4,179.93,114.68,218.68,32.28-38.75,114.67-144.85,114.67-218.48,.07-63.18-51.29-114.6-114.46-114.67h-.34Zm.12,178.93c-35.44,0-64.27-28.84-64.27-64.28s28.83-64.26,64.27-64.26,64.26,28.82,64.26,64.26-28.83,64.28-64.26,64.28Zm0-94.19c-16.5,0-29.93,13.41-29.93,29.91s13.43,29.94,29.93,29.94,29.91-13.44,29.91-29.94-13.41-29.91-29.91-29.91Z" fill="#222222"></path></g></g></g></g></svg>
</symbol>

<symbol id="svg_ico_linkedin">
    <svg xmlns="http://www.w3.org/2000/svg" viewBox="0 0 418.93 418.45">
      <g data-name="Layer 1">
        <g id="Icon_awesome-linkedin-in" data-name="Icon awesome-linkedin-in">
          <path d="m406.91,418.45h-81.72c-6.64,0-12.02-5.38-12.02-12.02v-128.18c0-12.67,0-30.02-4.71-41.89-2.05-5.16-4.78-8.88-8.36-11.38-4.23-2.95-10.11-4.44-17.48-4.44-8.08,0-14.74,1.42-19.8,4.22-4.25,2.35-7.57,5.77-10.15,10.45-6.33,11.48-7.06,28.81-7.06,40.84v130.38c0,6.64-5.38,12.02-12.02,12.02h-81.61c-6.64,0-12.02-5.38-12.02-12.02V143.11c0-6.64,5.38-12.02,12.02-12.02h78.42c6.64,0,12.02,5.38,12.02,12.02v4.55c4.98-4.23,10.4-7.97,16.17-11.15,15.46-8.51,32.95-12.68,50.58-12.07,10.82.01,20.94.92,30.06,2.7,9.14,1.79,17.59,4.5,25.11,8.08,14.53,6.91,26.24,17.31,34.8,30.92,7.54,11.97,12.75,26.37,15.94,44.01,2.6,14.39,3.86,31.26,3.86,51.57v144.69c0,6.64-5.38,12.02-12.02,12.02Zm-69.7-24.04h57.68v-132.67c0-18.86-1.14-34.33-3.48-47.3-2.63-14.55-6.76-26.16-12.62-35.48-6.19-9.83-14.3-17.03-24.79-22.02-11.79-5.61-26.95-8.45-45.05-8.45-.15,0-.29,0-.44,0-27.29-1-52.78,13.03-66.54,36.61-2.15,3.69-6.11,5.96-10.38,5.96h-1.19c-6.64,0-12.02-5.38-12.02-12.02v-23.9h-54.38v239.27h57.57v-118.36c0-15.93,1.14-36.28,10.04-52.44,4.76-8.64,11.34-15.33,19.57-19.88,8.66-4.79,19.24-7.23,31.44-7.23s22.88,2.95,31.22,8.76c7.47,5.21,13.18,12.69,16.97,22.24,6.4,16.13,6.4,36.14,6.4,50.75v116.16Zm-236.46,24.04H18.98c-6.64,0-12.02-5.38-12.02-12.02V143.11c0-6.64,5.38-12.02,12.02-12.02h81.77c6.64,0,12.02,5.38,12.02,12.02v263.31c0,6.64-5.38,12.02-12.02,12.02Zm-69.75-24.04h57.73v-239.27H31v239.27ZM59.59,119.2c-7.94,0-15.65-1.54-22.93-4.58-7.11-2.97-13.51-7.23-19-12.68-5.5-5.44-9.82-11.8-12.86-18.88C1.65,75.72.04,67.92,0,59.88s1.5-15.85,4.58-23.22c2.97-7.11,7.23-13.51,12.68-19,5.44-5.5,11.8-9.82,18.88-12.86C43.48,1.65,51.28.04,59.32,0c.1,0,.19,0,.29,0,7.94,0,15.65,1.54,22.93,4.58,7.11,2.97,13.51,7.23,19,12.68,5.5,5.44,9.82,11.8,12.86,18.88,3.15,7.34,4.76,15.14,4.8,23.18,0,.02,0,.04,0,.06.01,15.88-6.14,30.84-17.31,42.12-11.18,11.28-26.08,17.57-41.96,17.7-.01,0-.03,0-.04,0-.1,0-.19,0-.29,0Zm.01-95.16c-.06,0-.11,0-.17,0-9.5.04-18.41,3.79-25.09,10.53-6.68,6.75-10.34,15.69-10.3,25.19.04,9.5,3.79,18.41,10.53,25.09,6.71,6.64,15.59,10.3,25.02,10.3.05,0,.1,0,.15,0,9.48-.09,18.38-3.84,25.06-10.58,6.68-6.74,10.35-15.67,10.35-25.16-.1-19.54-16.03-35.38-35.56-35.38Z"></path>
        </g>
      </g>
    </svg>
</symbol>

<symbol id="svg_ico_instagram">
    <svg xmlns="http://www.w3.org/2000/svg" viewBox="0 0 400 480">
      <g>
        <path id="Icon_awesome-instagram" data-name="Icon awesome-instagram" d="m209.32,101.94c-59.25,0-107.28,48.03-107.28,107.28s48.03,107.28,107.28,107.28,107.28-48.03,107.28-107.28c.1-59.15-47.78-107.18-106.93-107.28-.12,0-.23,0-.35,0Zm0,177.03c-38.52,0-69.74-31.23-69.74-69.74s31.23-69.74,69.74-69.74,69.74,31.23,69.74,69.74h0c-.07,38.49-31.26,69.67-69.74,69.74h0Zm136.69-181.42c0,13.82-11.2,25.02-25.02,25.03s-25.02-11.2-25.03-25.02c0-13.82,11.2-25.02,25.02-25.03h0c13.79-.03,24.99,11.12,25.02,24.91,0,.04,0,.08,0,.12Zm71.05,25.4c-1.59-33.52-9.24-63.21-33.8-87.67C358.8,10.81,329.11,3.16,295.59,1.47,261.04-.49,157.5-.49,122.95,1.47c-33.43,1.59-63.12,9.24-87.67,33.71C10.72,59.65,3.16,89.34,1.47,122.86c-1.97,34.55-1.97,138.09,0,172.64,1.59,33.52,9.24,63.21,33.8,87.67s54.15,32.12,87.67,33.8c34.55,1.97,138.09,1.97,172.64,0,33.52-1.59,63.21-9.24,87.67-33.8,24.46-24.46,32.12-54.15,33.8-87.67,1.97-34.55,1.97-138,0-172.55h0Zm-44.63,209.62c-7.18,18.2-21.58,32.6-39.78,39.78-27.54,10.92-92.9,8.4-123.34,8.4s-95.89,2.43-123.34-8.4c-18.2-7.18-32.6-21.58-39.78-39.78-10.92-27.54-8.4-92.9-8.4-123.34s-2.43-95.89,8.4-123.34c7.18-18.2,21.58-32.6,39.78-39.78,27.54-10.92,92.9-8.4,123.34-8.4s95.89-2.43,123.34,8.4c18.2,7.18,32.6,21.58,39.78,39.78,10.92,27.54,8.4,92.9,8.4,123.34s2.52,95.89-8.4,123.35Z"></path>
      </g>
    </svg>
</symbol>

<symbol id="logo">
 <svg xmlns:xlink="http://www.w3.org/1999/xlink" xmlns="http://www.w3.org/2000/svg" viewBox="0 0 64.2 68.06" width="64.2"  height="68.06" ><defs><style>.cls-1{fill:#fed250;fill-rule:evenodd;}.cls-2{fill:none;}</style></defs><title>HOME</title><g id="Layer_1-2" data-name="Layer 1-2"><g id="Layer_1-2-2" data-name="Layer 1-2-2"><path class="cls-1" d="M2,17.45c0,9,3.7,18.7,7.91,26.4,4,7.4,10.9,17.7,18.6,21.2s16.2-7,20.3-12.9A72.19,72.19,0,0,0,61,25.25c2.5-11-.3-17.21-10.7-20.31A61.54,61.54,0,0,0,19,3.44C11.92,5,1.61,7.74,2,17.45Z" fill="#FED250"></path><path d="M31.92,67.85a9.78,9.78,0,0,1-4.1-.9c-8.7-4-16-15.6-19.61-22.1C4.51,38,0,27.65,0,17.45c-.5-11.91,12.51-14.71,18.81-16A64.72,64.72,0,0,1,51.22,3c11.1,3.3,14.9,10.31,12.1,22.81a73.57,73.57,0,0,1-12.5,27.6Q40.32,67.85,31.92,67.85Zm0-63.61a57.14,57.14,0,0,0-12.3,1.3C10,7.54,3.81,10.35,4.11,17.35v.1c0,9.3,4.2,19,7.71,25.4,2.6,4.9,9.7,16.7,17.7,20.4,4.4,2.1,10.7-2.3,17.8-12.2a70.08,70.08,0,0,0,11.9-26.2c2.3-10.3-.2-15.2-9.3-17.91a61.36,61.36,0,0,0-18-2.7Z"></path><path class="cls-2" d="M44.42,27.65a3.17,3.17,0,0,0,.2-4.5l-.2-.2a3.46,3.46,0,0,0-2.6-.9h-5.3v6.6h5.2A3.62,3.62,0,0,0,44.42,27.65Z" fill="none"></path><path class="cls-2" d="M25.32,23.25a3.36,3.36,0,0,0-2.8-1.1h-4.8v7.6h4.7a3.61,3.61,0,0,0,2.8-1,3.25,3.25,0,0,0,1.1-2.8A3.52,3.52,0,0,0,25.32,23.25Z" fill="none"></path><path class="cls-2" d="M42.22,33.05h-5.5v7.1h5.7a3.83,3.83,0,0,0,2.9-1,3.19,3.19,0,0,0,1-2.6,3.54,3.54,0,0,0-1-2.6A4.91,4.91,0,0,0,42.22,33.05Z" fill="none"></path><path d="M50.22,33.25a7.76,7.76,0,0,0-3.4-2.5v-.3a5.82,5.82,0,0,0,2.6-2.3,6.5,6.5,0,0,0-.1-7.2,8.33,8.33,0,0,0-3-2.6,9.9,9.9,0,0,0-4.1-1H28.32a9,9,0,0,1,4.7,7.8c.1.5.6,5.3-5.6,8.7l7.5,11h7.7a11.3,11.3,0,0,0,4.5-.9,7.63,7.63,0,0,0,3.2-2.7,6.89,6.89,0,0,0,1.2-3.9A6.68,6.68,0,0,0,50.22,33.25Zm-13.6-11.2h5.3a4.11,4.11,0,0,1,2.6.9,2.9,2.9,0,0,1,1,2.3,3.49,3.49,0,0,1-1,2.4,3.32,3.32,0,0,1-2.7.9h-5.2Zm8.6,17.2a3.83,3.83,0,0,1-2.9,1h-5.7v-7.2h5.5a4.06,4.06,0,0,1,3,1,3.19,3.19,0,0,1,1,2.6A2.84,2.84,0,0,1,45.22,39.25Z"></path><path class="cls-2" d="M25.32,23.25a3.36,3.36,0,0,0-2.8-1.1h-4.8v7.6h4.7a3.61,3.61,0,0,0,2.8-1,3.25,3.25,0,0,0,1.1-2.8A3.52,3.52,0,0,0,25.32,23.25Z" fill="none"></path><path class="cls-2" d="M25.32,23.25a3.36,3.36,0,0,0-2.8-1.1h-4.8v7.6h4.7a3.61,3.61,0,0,0,2.8-1,3.25,3.25,0,0,0,1.1-2.8A3.52,3.52,0,0,0,25.32,23.25Z" fill="none"></path><path d="M25.52,33.35l.7-.3c6.2-3,5.5-7.5,5.5-7.7v-.1a8.18,8.18,0,0,0-8.1-8h-11v22.9h0v.3c.8,4,5,4.4,5.1,4.4h0v-4.7h0v-5.7h2.4l7,10.3h6.2Zm-3.1-3.6h-4.7v-7.6h4.8a3.55,3.55,0,0,1,2.8,1.1,3.39,3.39,0,0,1,1,2.7,3.86,3.86,0,0,1-1.1,2.7,3.25,3.25,0,0,1-2.8,1.1Z"></path></g></g></svg>
</symbol>

<symbol id="svg_ico_mail">
    <svg xmlns="http://www.w3.org/2000/svg" viewBox="0 0 499.65 407.12">
      <g>
        <g >
          <g >
            <path d="M499.64,64.53c0-.07,0-.15,0-.22C499.32,28.91,470.38,.11,434.88,0H64.72C29.3,.11,.38,28.86,.01,64.27c0,.1,0,.19,0,.29,0,.07,0,.14,0,.21V342.41c.1,35.58,29.13,64.61,64.77,64.72H434.93c35.58-.11,64.62-29.13,64.72-64.77V64.72c0-.06,0-.12,0-.18ZM64.82,37.01H434.83c12.27,.03,22.72,8.07,26.39,19.12L249.82,204.1,38.44,56.13c3.69-11.06,14.12-19.09,26.39-19.12ZM434.88,370.11H64.82c-15.3-.04-27.77-12.52-27.81-27.76V100.31L239.22,241.85c3.18,2.22,6.89,3.34,10.61,3.34s7.43-1.12,10.61-3.34L462.64,100.31v241.99c-.05,15.29-12.51,27.78-27.76,27.81Z"></path>
          </g>
        </g>
      </g>
    </svg>
</symbol>

<symbol id="svg_ico_call">
    <svg xmlns="http://www.w3.org/2000/svg" viewBox="0 0 499.95 499.87"><g id="a"><path d="M430.63,499.87c-2.26,0-4.47-.09-6.68-.31-73.45-7.97-144.86-33.3-206.67-73.31-57.29-36.31-106.99-85.92-143.52-143.31C33.61,221.2,8.16,149.61,.28,76.06-3.15,37.47,25.14,3.67,63.29,.28c2.14-.19,4.21-.28,6.28-.28h68.82c34.2,0,63.69,25.54,68.58,59.67,2.66,20.16,7.55,39.82,14.61,58.71,9.48,25.26,3.29,54.03-15.78,73.19l-15.59,15.59c26.34,40.92,61.22,75.73,102.19,101.98l15.57-15.57c19.36-19.07,48.12-25.21,73.43-15.73,18.79,7.01,38.5,11.9,58.49,14.54,35.04,4.87,60.75,35,60.05,70.16v67.74c.05,18.49-7.13,35.96-20.23,49.13-13.08,13.15-30.53,20.44-49.09,20.46ZM138.16,48.17H69.57c-13.74,1.13-22.39,11.5-21.36,23.21,7.03,65.6,29.87,129.88,66.04,185.5,32.88,51.65,77.45,96.13,128.98,128.79,55.74,36.08,119.88,58.85,185.69,65.97,6.63,.16,12.63-2.19,16.63-6.23,4.02-4.02,6.23-9.38,6.21-15.08v-68.65c.28-10.82-7.62-20.09-18.35-21.59-23.4-3.08-46.64-8.84-68.89-17.12-7.88-3.03-16.72-1.08-22.63,4.77l-28.79,28.79c-7.67,7.64-19.52,9.22-28.91,3.93-60.59-34.39-110.83-84.53-145.33-145.05-5.36-9.43-3.76-21.29,3.9-28.95l28.91-28.91c5.79-5.81,7.67-14.58,4.77-22.3-8.33-22.32-14.14-45.53-17.22-69.03-1.46-10.23-10.54-18.06-21.1-18.06Z"></path></g></svg>
</symbol>

<symbol id="svg_ico_youtube">
    <svg xmlns="http://www.w3.org/2000/svg" id="Layer_2" data-name="Layer 2" viewBox="0 0 500.96 356.05">
      <g id="Layer_1-2" data-name="Layer 1">
        <g>
          <path d="m214.27,256.25c-5.35,0-10.69-1.43-15.35-4.28-8.68-5.28-14.1-14.87-14.15-25.04v-97.74c0-10.19,5.4-19.83,14.1-25.15,8.69-5.32,19.73-5.74,28.81-1.11l49.6,25.52,45.27,23.32c9.89,5.07,16.03,15.13,16.03,26.24s-6.15,21.17-16.04,26.25l-45.26,23.32-49.35,25.32c-.08.04-.17.09-.25.13-4.19,2.14-8.8,3.2-13.4,3.2Zm.49-126.21v95.91l48.79-25.04,44.42-22.88-44.44-22.89-48.77-25.1Zm94.08,48.44h.01-.01Z"></path>
          <path d="m406.26,356.05H94.7c-24.63,0-48.54-11.09-67.33-31.24C10.23,306.43,0,282.71,0,261.35V94.7C0,42.48,42.48,0,94.7,0h311.56c24.63,0,48.54,11.09,67.33,31.24,17.14,18.38,27.38,42.1,27.38,63.46v166.65c0,52.22-42.48,94.7-94.7,94.7ZM94.7,30c-35.68,0-64.7,29.02-64.7,64.7v166.65c0,13.75,7.4,30.23,19.31,43,7.56,8.1,23.51,21.7,45.39,21.7h311.56c35.68,0,64.7-29.03,64.7-64.7V94.7c0-13.75-7.4-30.23-19.31-43-7.56-8.1-23.5-21.7-45.39-21.7H94.7Z"></path>
        </g>
      </g>
    </svg>
</symbol>

<symbol id="svg_ico_umbrella">
  <svg id="Layer_2" data-name="Layer 2" xmlns="http://www.w3.org/2000/svg" viewBox="0 0 398.8 494.58" style="fill:#7A7A7A;">
    <defs>
      <style>
        .cls-1 {
          stroke: ;
          stroke-linecap: round;
          stroke-linejoin: round;
          stroke-width: 4px;
        }
      </style>
    </defs>
    <g id="Layer_1-2" data-name="Layer 1">
      <g>
        <path d="m199.21,0c-.72.02-1.44.13-2.13.33L6.16,54.46h0C2.52,55.51,0,58.84,0,62.64v189.65c0,68.93,49.79,128.87,98.32,171.83,48.53,42.96,96.99,69.43,96.99,69.43h0c2.55,1.39,5.63,1.39,8.18,0,0,0,48.48-26.47,97-69.43,48.53-42.96,98.3-102.89,98.3-171.83V62.64c0-3.8-2.52-7.13-6.16-8.18L201.72.33h0c-.81-.23-1.66-.35-2.51-.33h0Zm.2,17.38l182.34,51.68v183.22c0,60.55-45.61,117.53-92.52,159.06-44.86,39.71-85.97,62.14-89.81,64.26-3.84-2.13-44.97-24.55-89.83-64.26-46.91-41.53-92.52-98.51-92.52-159.06V69.06L199.41,17.38Z"/>
        <g>
          <path class="cls-1" d="m137.83,122.08c-.73.35-1.46.7-2.19,1.07-1.08.53-1.89,1.4-2.23,2.43-.35,1.03-.21,2.12.38,3.04.59.92,1.59,1.59,2.77,1.85,1.18.27,2.45.11,3.52-.43.69-.35,1.39-.68,2.08-1.01,1.09-.51,1.91-1.38,2.28-2.41.36-1.02.24-2.12-.33-3.05-.58-.93-1.57-1.61-2.74-1.89s-2.45-.14-3.53.39h0Z"/>
          <path class="cls-1" d="m68.33,199.47c1.04,1.38,2.76,2.07,4.46,1.79.5-.09,50.51-8.12,68.07,17.03.02.03.06.06.09.09h0c.16.22.35.43.55.62.05.05.1.11.16.16.25.22.53.41.82.57h.03c.06.03.13.05.19.08h0c.25.12.51.22.77.29.1.03.2.04.31.06h0c.23.05.47.08.71.09.06,0,.11.02.16.02s.13-.02.2-.02h0c.21,0,.41-.03.61-.07.07,0,.14,0,.21-.02s.06-.03.1-.04h0c.4-.09.78-.24,1.14-.44.04-.02.08-.06.13-.08.31-.19.59-.41.85-.66.06-.06.12-.12.18-.18h0c.26-.28.49-.59.67-.92,4.95-9.28,31.5-12.43,48.67-12.31v142.21c0,4.18-2.23,8.04-5.85,10.13-3.62,2.09-8.07,2.09-11.69,0-3.62-2.09-5.84-5.95-5.84-10.13,0-2.55-2.07-4.61-4.62-4.61s-4.61,2.06-4.61,4.61c0,7.47,3.99,14.38,10.46,18.12,6.47,3.74,14.45,3.74,20.92,0,6.47-3.74,10.46-10.64,10.46-18.12v-142.14c16.76.49,38.93,3.86,43.4,12.26.18.32.39.61.64.88.04.04.06.09.1.14.3.32.65.59,1.03.81.08.04.17.06.25.11h0c.31.16.63.28.96.37.03,0,.06.03.09.03h0c.33.08.67.11,1,.11.26-.01.51-.04.76-.09.11-.02.23-.02.33-.04s.13-.05.19-.07c.3-.08.58-.19.86-.33h.03c.29-.16.57-.35.82-.57.06-.05.11-.11.16-.16.2-.19.38-.39.55-.62.02-.04.06-.06.09-.09,17.56-25.15,67.56-17.12,68.07-17.03h0c1.71.29,3.43-.4,4.47-1.79,1.04-1.39,1.21-3.24.45-4.79-36.8-75.43-108.17-86.1-126.9-87.61v-4.58c0-2.55-2.06-4.61-4.61-4.61s-4.61,2.06-4.61,4.61v4.54c-12.47,1.03-24.77,3.59-36.61,7.63-1.18.38-2.15,1.21-2.71,2.31s-.65,2.38-.26,3.55c.39,1.17,1.24,2.14,2.35,2.68,1.11.54,2.39.62,3.55.21,5.84-1.96,11.78-3.56,17.81-4.79-21.05,21.93-32.74,67.49-36.97,87.07-17.76-15.73-47.11-15.75-61.79-14.58h0c10.06-18.49,24.04-34.56,40.97-47.08,2.05-1.51,2.5-4.4.99-6.45-1.51-2.05-4.4-2.5-6.45-.99-20.43,15.16-36.82,35.1-47.75,58.07-.76,1.55-.59,3.4.45,4.78h0Zm250.27-8.34c-14.68-1.17-44.02-1.15-61.78,14.58-4.23-19.54-15.87-64.98-36.86-86.95,20.72,4.15,40.29,12.77,57.32,25.27,17.04,12.5,31.14,28.57,41.32,47.09h0Zm-119.24-74.9c24.2,5.85,40.7,57.2,47.63,87.68-16.63-8-43.81-7.69-47.52-7.61-3.88-.08-31.09-.38-47.73,7.6,6.93-30.49,23.43-81.82,47.63-87.68h0Z"/>
        </g>
      </g>
    </g>
  </svg>
</symbol>

<symbol id="svg_ico_twitter">
    <svg xmlns="http://www.w3.org/2000/svg" id="Layer_2" data-name="Layer 2" viewBox="0 0 480.5 398.06">
      <g id="Layer_1-2" data-name="Layer 1">
        <g id="Icon_feather-twitter" data-name="Icon feather-twitter">
          <path d="m164.13,398.06c-.41,0-.81,0-1.22,0-52.56-.22-105.9-14.53-154.25-41.39-6.81-3.79-10.14-11.75-8.03-19.26s9.07-12.59,16.88-12.27c36.71,1.47,73.59-6.55,106.45-22.81C45.25,256.38,25.15,189.79,22.87,139.62c-2.69-59.14,18.31-107.14,19.2-109.15,2.46-5.54,7.72-9.33,13.75-9.92,6.03-.59,11.92,2.12,15.41,7.08,35.37,50.37,91.39,81.23,152.19,84.61v-3.13c-.39-31.73,13.11-61.86,37.06-82.69,41.95-36.49,104.35-34.69,144.17,2.38,17.44-6.2,33.91-14.72,49.09-25.4,2.31-1.69,5.06-2.8,8.04-3.13,7.02-.79,13.79,2.88,16.94,9.2,1.87,3.74,2.23,7.87,1.26,11.68-6.96,28.46-20.97,54.61-40.71,76.12.39,3.68.59,7.38.61,11.07,0,56.89-12.48,108.22-37.08,152.62-22.83,41.19-56.19,75.49-96.49,99.21-42.17,24.81-91.31,37.91-142.18,37.91Zm-80.29-45.82c26.05,7.91,52.76,12.04,79.21,12.15.36,0,.72,0,1.08,0,44.87,0,88.11-11.49,125.1-33.26,35.12-20.66,64.21-50.58,84.12-86.51,21.81-39.34,32.86-85.18,32.86-136.24-.02-4.55-.46-9.18-1.33-13.7-1.05-5.52.71-11.2,4.71-15.14,7.46-7.35,14.03-15.48,19.61-24.21-7.97,3.39-16.13,6.34-24.47,8.85-6.34,1.91-13.21-.07-17.55-5.07-26.83-30.85-73.77-34.12-104.62-7.29-16.49,14.34-25.78,35.1-25.49,56.95,0,.08,0,.15,0,.23v20.31c0,9.13-7.27,16.59-16.4,16.83-67.58,1.75-131.64-25.59-176.87-74.28-4.44,17.35-8.6,41.29-7.26,67.34,3.42,66.67,40.19,116.05,109.29,146.76,5.58,2.48,9.39,7.8,9.93,13.89.54,6.09-2.26,11.99-7.31,15.42-25.65,17.41-54.5,29.92-84.62,36.98Z"></path>
        </g>
      </g>
    </svg>
</symbol>

<!-- * -->
<symbol id="svg_ico_menu">
  <svg xmlns="http://www.w3.org/2000/svg" viewBox="0 0 500 434.2" width="21px" height="20px">
      <g>
        <path d="m468.36,63.29H31.64C14.21,63.18.1,49.08,0,31.64h0C.1,14.21,14.21.1,31.64,0h436.71c17.43.1,31.54,14.21,31.64,31.64h0c0,17.48-14.17,31.64-31.64,31.64Z"></path>
        <path d="m468.36,434.2H31.64c-17.43-.1-31.54-14.21-31.64-31.64h0c.1-17.43,14.21-31.54,31.64-31.64h436.71c17.43.1,31.54,14.21,31.64,31.64h0c0,17.48-14.17,31.64-31.64,31.64Z"></path>
        <path d="m468.36,248.74H31.64c-17.43-.1-31.54-14.21-31.64-31.64h0c.1-17.43,14.21-31.54,31.64-31.64h436.71c17.43.1,31.54,14.21,31.64,31.64h0c0,17.48-14.17,31.64-31.64,31.64Z"></path>
      </g>
  </svg>
</symbol>

<symbol id="svg_ico_setting">
 <svg id="Layer_2" data-name="Layer 2" xmlns="http://www.w3.org/2000/svg" viewBox="0 0 498 486.8" style="fill:#7A7A7A;">
  <g id="Layer_1-2" data-name="Layer 1">
    <g>
      <path d="m186.45,278.41c2.17,0,4.26-.86,5.83-2.36l36.21-36.21h0c1.97-3.32,1.43-7.54-1.29-10.27-2.72-2.72-6.95-3.26-10.27-1.29l-36.21,36.12c-3.11,3.26-3.11,8.39,0,11.65,1.51,1.53,3.58,2.39,5.74,2.36h0Z"/>
      <path d="m215.99,307.96c2.19-.03,4.27-.91,5.83-2.45l36.21-36.12h0c2.05-3.32,1.56-7.61-1.19-10.38-2.75-2.77-7.03-3.29-10.37-1.27l-36.21,36.21c-3.06,3.25-3.06,8.32,0,11.56,1.53,1.52,3.58,2.39,5.74,2.45h0Z"/>
      <path d="m302.05,224.59c2.26-.14,4.37-1.18,5.88-2.87l80.25-80.87,42.55-13.6c1.98-.69,3.64-2.09,4.67-3.92l43.84-79.3c1.71-3.3,1.15-7.32-1.38-10.02l-25.34-25.53c-2.7-2.59-6.74-3.16-10.03-1.39l-78.69,44.44c-1.82,1.04-3.2,2.72-3.89,4.7l-13.84,42.52-80.25,80.87h0c-2.01,3.43-1.47,7.79,1.33,10.61,2.79,2.82,7.12,3.37,10.52,1.34l81.72-82.26c.95-.93,1.64-2.11,1.99-3.4l13.49-41.04,70.3-39.91,16.34,16.47-39.43,70.76-40.99,13.68c-1.23.41-2.35,1.1-3.29,2l-81.72,82.35c-3.13,3.35-3.13,8.59,0,11.94,1.6,1.56,3.74,2.43,5.97,2.44h0Z"/>
      <path d="m59.25,486.8c15.83.09,31.03-6.17,42.2-17.39l131.67-132.09c4.25-4.26,6.64-10.03,6.64-16.04s-2.39-11.78-6.64-16.04l-52.16-52.16h0c-4.33-4.11-10.07-6.4-16.04-6.4s-11.71,2.29-16.04,6.4L17.13,384.93C6.1,396.12-.06,411.22,0,426.93c.06,15.72,6.33,30.77,17.45,41.87,11.12,11.1,26.17,17.36,41.89,17.41l-.08.59Zm105.67-223.92c1.69-.04,3.31.64,4.47,1.86l52.16,52.16h0c1.18,1.17,1.84,2.77,1.84,4.43s-.66,3.26-1.84,4.43l-131.76,131.84c-10.97,10.65-26.75,14.71-41.49,10.69-14.75-4.03-26.27-15.55-30.3-30.3-4.03-14.75.03-30.53,10.69-41.5l131.33-131.76c1.26-1.34,3.06-2.02,4.89-1.86h0Z"/>
      <path d="m61.2,432.53c2.16-.05,4.21-.93,5.74-2.45l101.28-101.28c2.2-1.36,3.65-3.65,3.95-6.22.29-2.57-.61-5.13-2.44-6.96-1.83-1.82-4.4-2.7-6.97-2.39-2.57.31-4.85,1.79-6.19,3.99l-101.28,101.28c-3.06,3.25-3.06,8.32,0,11.56,1.57,1.56,3.69,2.44,5.91,2.45h0Z"/>
      <path d="m460.72,476.26c-13.19.14-25.66-5.16-35.09-14.98L184.15,203.66c-7.21-7.68-17.78-10.69-27.64-7.74-8.91,2.63-15.02,3.9-19.22,3.94-25.84.28-50.96-10.89-68.93-30.65-18.2-20.05-27.53-46.44-26.28-74.3.15-3.44,1.97-6.56,4.81-8.25,2.89-1.73,6.84-1.91,9.74-.1l51.9,32.25c15.59-8.76,25.65-25,27.16-43.37l-57.98-36.04c-2.68-1.65-4.4-4.57-4.67-7.82-.22-3.26,1.02-6.43,3.42-8.49C92.9,8.72,112.52.73,133.15.03c23.26-.69,46.06,9.2,64.3,28.1,23.39,24.26,33.06,56.33,28.01,92.83-1.37,9.81,1.77,19.63,8.41,26.32l249.2,251.6c9.38,9.75,14.78,23.21,14.93,36.98.24,22.07-16.48,40.17-37.27,40.4h0ZM163.6,174.84c12.53-.13,24.83,5.05,33.92,14.75l241.38,257.52c5.74,5.98,13.45,9.25,21.61,9.17,10.4-.11,18.75-9.18,18.64-20.19-.09-8.65-3.36-16.76-9.2-22.81l-249.1-251.51c-11.05-11.16-16.32-27.49-14.08-43.7,4.2-30.33-3.35-55.77-22.5-75.62-14.51-15.06-31.6-23.03-50.5-22.43-11.87.41-23.34,3.85-33.79,10.09l50.1,31.11c2.86,1.79,4.63,5.01,4.67,8.53.3,28.46-14.33,54.22-38.21,67.21l-3.95,2.14c-2.89,1.55-6.32,1.45-9.07-.26l-41.72-25.92c2.45,15.89,9.36,30.54,20.13,42.42,14.59,16.06,34.16,24.76,55.14,24.54,1.11-.01,4.71-.35,14.35-3.21,4.02-1.18,8.1-1.79,12.18-1.83h0Z"/>
    </g>
  </g>
 </svg>
</symbol>

<symbol id="svg_ico_logo_1">
  <svg version="1.1" id="Layer_1" xmlns="http://www.w3.org/2000/svg" xmlns:xlink="http://www.w3.org/1999/xlink" x="0px" y="0px"
	 viewBox="0 0 122.6 84.2" style="enable-background:new 0 0 122.6 84.2;" xml:space="preserve">
  <style type="text/css">
	.st0{fill:#FED250;}
 </style>
 <g>
	<path id="d" class="st0" d="M116.1,63h-9.5c-0.5,0-0.6-0.3-0.9-0.7c-2.5-3.8-5.1-7.4-7.5-11.2C96.8,49,95.4,47,94,44.9
		c-0.5-0.7-0.8-0.2-1,0.1c-1,1.6-2.2,3.1-3.2,4.6l-12,17.8c-0.2,0.4-0.7,0.6-1.1,0.6h-7.6c-0.8,0-0.6-0.3-0.3-0.8l12.1-17.9
		c4.2-6,8.3-12.2,12.6-18.1s8.2-11.6,12.1-17.6c1.4-2.1,2.8-2.9,5.2-2.6c1.9,0.1,3.8,0.1,5.6,0l-4.5,6.5l-10,14.6l-2.5,3.7
		c-0.6,0.7-0.6,1.7,0,2.4c3.4,5,6.9,10.2,10.3,15.3c2,2.9,4,5.9,6,8.8C115.8,62.4,115.9,62.6,116.1,63L116.1,63z"/>
	<path id="e" class="st0" d="M63.7,0h9.2c0.5,0,1,0.2,1.3,0.6c4.8,7,9.7,14,14.5,21.1c1.5,2.1,2.8,4.2,4.5,6.2
		c0.5,0.6,0.5,1.5,0,2.1l0,0c-1.6,2-3,4.2-4.6,6.3C87.5,35.7,64.6,1.8,63.7,0z"/>
	<path d="M72.8,38.5c-1.5-2-3.6-3.6-5.9-4.4v-0.5c1.9-0.9,3.5-2.3,4.6-4.1c2.5-4,2.4-9.1-0.2-13c-1.3-2-3.2-3.6-5.3-4.6
		c-2.3-1.2-4.8-1.7-7.3-1.7H34c3.9,2.1,7.7,6.2,8.2,14c0.1,0.9,1,9.4-9.9,15.5l13.2,19.7h13.7c2.7,0,5.4-0.5,7.9-1.7
		c4.7-2.1,7.7-6.7,7.7-11.9C75,43.2,74.3,40.6,72.8,38.5z M48.8,18.5h9.4c3.3-0.2,6.1,2.4,6.3,5.7c0,0.1,0,0.2,0,0.3
		c0,1.6-0.7,3.2-1.9,4.2c-1.3,1.2-3,1.8-4.7,1.7h-9.2L48.8,18.5L48.8,18.5z M63.9,49.2c-1.4,1.3-3.2,2-5.1,1.9h-10V38.2h9.9
		c2-0.2,3.9,0.5,5.3,1.9c1.3,1.2,2,2.9,1.9,4.6C65.9,46.5,65.2,48.1,63.9,49.2z"/>
	<path d="M29.1,38.7l1.1-0.5c11-5.3,9.9-13.4,9.8-13.7v-0.1c-0.1-7.9-6.5-14.2-14.4-14.2H6.1V51l0,0v0.5c1.4,7,8.9,7.8,9,7.8l0,0V51
		l0,0V40.9h4.2l12.6,18.3h11L29.1,38.7z M23.5,32.4h-8.3V18.7h8.4c1.9-0.1,3.7,0.6,5,2c1.3,1.3,1.9,3,1.9,4.8c0.1,1.8-0.6,3.6-2,4.8
		C27.3,31.8,25.4,32.5,23.5,32.4L23.5,32.4z"/>
 </g>
 <g>
	<path d="M0.4,81.9l0.8-1c1,1,2.2,1.7,3.8,1.7c1.8,0,2.7-1,2.7-2c0-1.2-1.1-1.7-3.1-2.2c-2.3-0.5-3.8-1.3-3.8-3.3
		c0-1.9,1.7-3.3,3.9-3.3c1.7,0,3,0.7,4.1,1.7l-0.8,1C7,73.6,5.9,73,4.7,73c-1.4,0-2.5,1-2.5,2c0,1.2,1.2,1.6,3.1,2.1
		c2.2,0.5,3.8,1.3,3.8,3.4c0,1.9-1.4,3.4-4.1,3.4C3,83.7,1.5,83,0.4,81.9z"/>
	<path d="M11.5,78.7v-6.8h1.3v6.8c0,2.2,1.5,3.8,3.6,3.8s3.6-1.6,3.6-3.8v-6.8h1.3v6.8c0,3-2,5-4.9,5C13.5,83.8,11.5,81.7,11.5,78.7
		z"/>
	<path d="M24.3,71.9h5.4c1.9,0,3.2,1.2,3.2,2.9c0,1.2-0.6,2-1.7,2.6c1.3,0.7,2.1,1.7,2.1,3c0,1.9-1.4,3.2-3.5,3.2h-5.6L24.3,71.9
		L24.3,71.9z M29.3,76.8c1.3,0,2.2-0.8,2.2-1.9S30.6,73,29.3,73h-3.7v3.8H29.3z M29.5,82.3c1.4,0,2.5-0.9,2.5-2.2s-1-2.2-2.5-2.2
		h-3.9v4.3L29.5,82.3L29.5,82.3z"/>
	<path d="M35,81.9l0.8-1c1,1,2.2,1.7,3.8,1.7c1.8,0,2.7-1,2.7-2c0-1.2-1.1-1.7-3.1-2.2c-2.3-0.5-3.8-1.3-3.8-3.3
		c0-1.9,1.7-3.3,3.9-3.3c1.7,0,3,0.7,4.1,1.7l-0.8,1c-1-0.9-2.1-1.5-3.3-1.5c-1.4,0-2.5,1-2.5,2c0,1.2,1.2,1.6,3.1,2.1
		c2.2,0.5,3.8,1.3,3.8,3.4c0,1.9-1.4,3.4-4.1,3.4C37.7,83.7,36.2,83,35,81.9z"/>
	<path d="M45.6,77.7c0-3.3,2.8-6,6-6c1.6,0,3.1,0.7,4.2,1.8l-0.9,0.9c-0.9-0.9-2-1.5-3.3-1.5c-2.5,0-4.6,2.2-4.6,4.8
		c0,2.6,2.1,4.8,4.6,4.8c1.3,0,2.4-0.6,3.3-1.5l0.9,0.9c-1.1,1.1-2.6,1.8-4.2,1.8C48.3,83.8,45.6,81,45.6,77.7z"/>
	<path d="M63.5,79.2l3,4.3H65l-3-4.2h-3.1v4.2h-1.3V71.9h4.7c2.4,0,4.3,1.5,4.3,3.7C66.6,77.4,65.3,78.8,63.5,79.2z M58.9,78.1h3.2
		c1.9,0,3.2-0.9,3.2-2.5s-1.3-2.5-3.2-2.5h-3.2V78.1z"/>
	<path d="M68.6,71.9h1.3v11.7h-1.3V71.9z"/>
	<path d="M72.7,71.9h4.7c2.4,0,4.3,1.5,4.3,3.7s-1.9,3.7-4.3,3.7H74v4.2h-1.3C72.7,83.5,72.7,71.9,72.7,71.9z M77.2,78.1
		c1.9,0,3.2-0.9,3.2-2.5s-1.3-2.5-3.2-2.5H74v5H77.2z"/>
	<path d="M86.9,73.1H83v-1.3h9.2v1.3h-3.9v10.4h-1.4V73.1z"/>
	<path d="M94.3,71.9h1.3v11.7h-1.3V71.9z"/>
	<path d="M97.9,77.7c0-3.3,2.8-6,6-6s6,2.8,6,6s-2.7,6.1-6,6.1S97.9,81,97.9,77.7z M108.5,77.7c0-2.6-2.1-4.8-4.6-4.8
		s-4.6,2.2-4.6,4.8c0,2.6,2.1,4.8,4.6,4.8S108.5,80.3,108.5,77.7z"/>
	<path d="M112.3,71.9h1.3l7.2,9.5v-9.5h1.3v11.7h-1.2l-7.2-9.5v9.5h-1.3L112.3,71.9L112.3,71.9z"/>
 </g>
 </svg>
</symbol>

<symbol id="svg_ico_logo_2">
  <svg version="1.1" xmlns="http://www.w3.org/2000/svg" xmlns:xlink="http://www.w3.org/1999/xlink" x="0px" y="0px"
	 viewBox="0 0 3116.88 1086.23" style="enable-background:new 0 0 3116.88 1086.23;" xml:space="preserve">
  <style type="text/css">
    .st0{fill:#FFD24F;}
    .st1{fill:#FFFFFF;}
    .st2{fill-rule:evenodd;clip-rule:evenodd;}
    .st3{fill-rule:evenodd;clip-rule:evenodd;fill:#FFD24F;}
    .st4{fill:none;}
  </style>
  <g>
    <path id="XMLID_152_" d="M1329.97,534.7l-57.53-103.15h-51.57V534.7h-50.78V257h101.56c53.56,0,95.61,19.83,95.61,80.14
      c0,42.84-21.03,64.67-47.21,80.93l62.68,116.64H1329.97z M1220.87,299.44v84.51h37.3c46.01,0,55.93-18.25,55.93-43.24
      c0-25.79-10.31-41.26-53.95-41.26H1220.87z"/>
    <path id="XMLID_149_" d="M1872.72,411.72V534.7h-50.78V411.72L1725.93,257h53.96l67.44,109.49L1914.77,257h53.96L1872.72,411.72z"
      />
    <path id="XMLID_146_" d="M2116.52,534.7l-23.8-67.05h-92.44l-23.8,67.05h-52.77L2022.49,257h48l98.79,277.71H2116.52z
      M2046.29,337.14l-28.56,81.33h57.53L2046.29,337.14z"/>
    <path id="XMLID_144_" d="M2220.74,534.7V257h50.78v228.51h114.26v49.19H2220.74z"/>
    <path id="XMLID_140_" d="M921.43,889.39V611.68h74.98c63.88,0,106.32,9.92,106.32,71.41c0,25-7.14,44.44-23.4,57.93
      c32.13,12.3,48.39,31.34,48.39,66.65c0,64.27-52.76,81.73-99.18,81.73H921.43z M972.21,654.92v68.24h49.59
      c14.28,0,33.72-5.95,33.72-32.53c0-28.97-15.07-35.71-38.48-35.71H972.21z M972.21,763.23v82.92h49.99
      c32.53,0,53.16-9.92,53.16-41.26c0-32.14-21.82-41.66-50.39-41.66H972.21z"/>
    <path id="XMLID_136_" d="M1329.88,889.39l-57.53-103.15h-51.57v103.15H1170V611.68h101.56c53.56,0,95.61,19.83,95.61,80.14
      c0,42.84-21.03,64.67-47.21,80.93l62.68,116.64H1329.88z M1220.78,654.13v84.51h37.3c46.01,0,55.94-18.25,55.94-43.24
      c0-25.79-10.32-41.26-53.96-41.26H1220.78z"/>
    <path id="XMLID_134_" d="M1855.81,660.87v228.51h-50.78V660.87h-78.55v-49.19h207.89v49.19H1855.81z"/>
    <path id="XMLID_132_" d="M2160.27,889.39V769.18h-130.92v120.21h-50.78V611.68h50.78v108.3h130.92v-108.3h50.78v277.71H2160.27z"/>
    <path id="XMLID_130_" d="M2262,889.39V611.68h177.73v49.19h-125.76v59.11h97.59v49.2h-97.59v71.01h129.73v49.19H2262z"/>
    <path id="XMLID_86_" d="M2654.45,889.39l-57.53-103.15h-51.57v103.15h-50.78V611.68h101.56c53.56,0,95.61,19.83,95.61,80.14
      c0,42.84-21.03,64.67-47.21,80.93l62.68,116.64H2654.45z M2545.35,654.13v84.51h37.3c46.01,0,55.94-18.25,55.94-43.24
      c0-25.79-10.32-41.26-53.96-41.26H2545.35z"/>
    <path id="XMLID_84_" d="M2741.64,878.12l0.05-61.33c15.07,14.68,45.62,29.36,87.29,29.36c29.75,0,49.58-7.54,49.58-30.15
      c0-28.17-30.94-38.09-64.67-49.59c-39.28-13.49-82.12-27.38-82.12-76.96c0-36.9,25.39-83.32,100.37-83.32
      c38.09,0,68.9,8.82,83.18,18.34l0.13,55.06c-29.75-16.26-54.74-24.99-81.32-24.99c-21.43,0-50.78,5.56-50.78,29.36
      c0,22.21,25.78,30.95,55.93,40.07c43.24,13.09,96.01,28.97,96.01,90.06c0,31.74-13.89,80.94-107.52,80.94
      C2785.74,894.95,2757.51,888.42,2741.64,878.12z"/>
    <path id="XMLID_81_" d="M1515.97,571.85c-12.33-13.38-25.99-27.54-38.94-42.41c-19.76-22.67-37.14-47.25-48.03-76.35
      c-30.98-82.73,14.16-173.71,95.45-192.66c70.89-16.52,140.86,28.03,160.04,102.23c10.23,39.57,3.42,76.74-15.13,111.93
      c-16.2,30.75-38.21,56.48-61.76,80.72c-24.21,24.92-49.08,49.1-73.35,73.95c-18.49,18.93-35.95,38.93-49.45,62.45
      c-8.03,14-14.32,28.79-15.89,45.38c-3.28,34.49,8.7,62.03,34.5,82.12c49.18,38.29,119.45,11.07,134.14-51.51
      c5.02-21.39,1.78-41.74-6.97-61.33c-10.76-24.08-26.82-43.94-43.72-63.12c-9.8-11.13-10.23-26.3-1.04-37
      c8.89-10.36,24.26-12.25,33.56-2.41c27.58,29.18,51.88,61.09,63.63,101.62c22.61,77.97-21.12,160.09-95.23,179.61
      c-71.06,18.72-142.84-24.12-163.35-97.74c-10.99-39.47-5.31-76.97,12.77-112.74c12.99-25.7,30.46-47.69,49.14-68.72
      C1496.27,594.69,1506,583.31,1515.97,571.85z M1554.56,537.66c15.23-16.72,30.36-32.73,44.82-49.4
      c12.5-14.42,23.34-30.26,31.25-48.2c8.65-19.61,11.95-39.92,6.89-61.31c-14.32-60.44-80.59-88.43-130.03-54.28
      c-28.5,19.68-41.9,48.24-38.54,84.96c1.59,17.33,8.38,32.68,17.01,47.09C1504.36,487.24,1529.02,511.9,1554.56,537.66z"/>
    <path id="XMLID_80_" class="st0" d="M1599.78,385.21c-6.6-18.33-25.09-30.64-45.71-30.75c-4.38,0.01-8.69,0.52-12.91,1.64
      c-19.54,5.17-33.58,20.9-35.56,40.22c-1.19,11.54,1.87,22.09,9.04,31.41c11.7,15.21,23.49,30.36,35.24,45.53
      c2.5,3.22,5.77,3.22,8.26,0c11.7-15.11,23.51-30.14,35.07-45.35C1603.1,414.88,1605.28,400.49,1599.78,385.21z"/>
    <circle id="XMLID_79_" class="st1" cx="1554.04" cy="399.88" r="17.89"/>
    <g id="XMLID_18_">
      <path id="XMLID_78_" class="st2" d="M196.13,345.09c-0.59,106.88,44.11,221.06,93.79,312.27c47.75,87.66,129.37,209,220.32,250.82
        c91.15,41.91,191.28-83.91,240.15-152.06C819.49,659.78,868.59,556,894.87,438.21c29.16-130.69-3.51-203.4-126.53-240.16
        c-121.09-36.18-246.21-44.7-370.14-17.87C313.07,198.61,190.88,230.63,196.13,345.09z"/>
      <path id="XMLID_77_" class="st3" d="M227.89,360.1c-0.53,97.3,40.15,201.24,85.39,284.27c43.47,79.8,117.77,190.26,200.57,228.33
        c82.98,38.15,174.13-76.38,218.62-138.43c62.89-87.71,107.59-182.18,131.52-289.41c26.54-118.97-3.19-185.16-115.18-218.63
        c-110.23-32.94-224.14-40.69-336.96-16.27C334.35,226.74,223.11,255.9,227.89,360.1z"/>
      <g id="XMLID_55_">
        <path id="XMLID_76_" class="st4" d="M691.53,489.11c7.21-6.77,10.82-15.27,10.82-25.5c0-9.95-3.47-18.31-10.41-25.09
          c-6.94-6.77-16.12-10.16-27.55-10.16h-56.74v70.91h55.11C674.72,499.27,684.31,495.89,691.53,489.11z"/>
        <path id="XMLID_75_" class="st4" d="M486.19,442.05c-7.49-8.02-17.62-12.03-30.41-12.03h-51.84v82.1h51.03
          c12.51,0,22.72-3.87,30.62-11.61c7.89-7.74,11.84-17.55,11.84-29.44C497.42,459.74,493.67,450.07,486.19,442.05z"/>
        <path id="XMLID_74_" class="st4" d="M667.24,547.37h-59.6v76.71h61.23c13.33,0,23.74-3.53,31.23-10.57
          c7.48-7.05,11.23-16.24,11.23-27.58c0-11.33-3.81-20.59-11.43-27.79C692.27,550.97,681.39,547.37,667.24,547.37z"/>
        <path id="XMLID_70_" d="M753.37,549.24c-8.98-12.03-21.09-20.8-36.33-26.33v-3.32c11.7-5.8,21.16-14.16,28.37-25.08
          c7.21-10.92,10.82-23.85,10.82-38.77c0-14.1-3.95-27.09-11.84-38.98c-7.9-11.88-18.71-21.29-32.45-28.2
          c-13.75-6.91-28.78-10.37-45.11-10.37h-85.2v-0.06h-63.89c23.52,12.8,47.05,37.31,50.37,84.36c0.79,5.49,6.33,57.45-59.88,93.74
          l80.12,118.85h82.57c17.69,0,33.81-3.38,48.37-10.16c14.56-6.77,26.13-16.44,34.7-29.03c8.57-12.57,12.86-27.02,12.86-43.33
          C766.84,575.71,762.35,561.26,753.37,549.24z M607.64,428.37h56.74c11.43,0,20.61,3.39,27.55,10.16
          c6.94,6.78,10.41,15.14,10.41,25.09c0,10.23-3.61,18.73-10.82,25.5c-7.21,6.78-16.81,10.16-28.78,10.16h-55.11V428.37z
          M700.1,613.51c-7.49,7.05-17.9,10.57-31.23,10.57h-61.23v-76.71h59.6c14.15,0,25.04,3.59,32.66,10.78
          c7.62,7.19,11.43,16.45,11.43,27.79C711.33,597.27,707.58,606.46,700.1,613.51z"/>
        <path id="XMLID_69_" class="st4" d="M486.19,442.05c-7.49-8.02-17.62-12.03-30.41-12.03h-51.84v82.1h51.03
          c12.51,0,22.72-3.87,30.62-11.61c7.89-7.74,11.84-17.55,11.84-29.44C497.42,459.74,493.67,450.07,486.19,442.05z"/>
        <g id="XMLID_64_">
          <path id="XMLID_68_" class="st4" d="M486.19,442.05c-7.49-8.02-17.62-12.03-30.41-12.03h-51.84v82.1h51.03
            c12.51,0,22.72-3.87,30.62-11.61c7.89-7.74,11.84-17.55,11.84-29.44C497.42,459.74,493.67,450.07,486.19,442.05z"/>
          <path id="XMLID_65_" d="M487.92,550.88l7.19-3.55c66.4-32.75,59.67-80.89,59.35-82.92l-0.08-0.65
            c-5.8-84.66-83.94-85.63-87.26-85.63h-48.21l0.09,0.06h-70.18v246.85h0.01c0.14,0.97,0.33,1.89,0.51,2.82
            c8.25,42.61,53.51,47.13,54.54,47.22c0.01,0,0.05,0,0.05,0v-50.04h-0.01v-61.5h25.72l75.52,111.54h47.36h15.92h3.19
            L487.92,550.88z M454.96,512.13h-51.03v-82.1h51.84c12.79,0,22.92,4.01,30.41,12.03c7.48,8.02,11.23,17.69,11.23,29.02
            c0,11.89-3.95,21.7-11.84,29.44C477.68,508.26,467.48,512.13,454.96,512.13z"/>
        </g>
      </g>
    </g>
  </g>
  </svg>

</symbol>

<symbol id="services">
  <svg id="Layer_2" data-name="Layer 2" xmlns="http://www.w3.org/2000/svg" viewBox="0 0 425.93 500" style="fill:#7A7A7A;">
    <defs>
      <style>
        .cls-1 {
          fill: none;
        }
      </style>
    </defs>
    <g id="Layer_1-2" data-name="Layer 1">
      <g>
        <polygon class="cls-1" points="348.45 277.48 211.22 153.7 300.23 277.48 348.45 277.48"/>
        <path class="cls-1" d="m272.06,437.53v1.3c.13,1.13.26,2.26.48,3.39,2.8,15.3,12.63,28.39,26.54,35.34,13.91,6.95,30.28,6.95,44.2,0,13.91-6.95,23.74-20.04,26.53-35.34v-.16h-.39v-1.35c.38-2.49.58-5,.57-7.52,0-2.91-.24-5.82-.74-8.7h.36s-.23-1.18-.23-1.18c-3.09-14.97-12.93-27.66-26.66-34.39-13.72-6.73-29.79-6.73-43.52,0-13.72,6.73-23.56,19.42-26.66,34.39l-.26,1.35h0c-.31,2.83-.39,5.68-.22,8.52v4.35Z"/>
        <path d="m183.41,364.34c-95.48-4.32-169.63-85.51-165.32-180.98C22.41,87.89,103.58,13.72,199.07,18.04c89.19,4.03,159.79,74.4,165.17,162.25l-35.32-26.1c-3.96-2.94-9.57-2.08-12.51,1.89-1.11,1.49-1.67,3.17-1.75,4.91h0c-.13,2.86,1.14,5.74,3.65,7.61l51.69,38.18c1.89,1.39,4.3,1.99,6.67,1.65,2.33-.34,4.43-1.66,5.85-3.55l38.22-52.07c2.89-3.94,2.03-9.57-1.94-12.5-3.94-2.92-9.59-2.03-12.5,1.94l-24.46,33.31C374.19,80.35,296.97,4.59,199.87.2,94.52-4.57,4.95,77.26.19,182.61h0c-4.76,105.34,77.06,194.92,182.44,199.63,5.75.26,11.49.24,17.19-.01v-17.94c-5.45.27-10.92.3-16.42.05Z"/>
        <path d="m217.22,362.53v-58.97c0-4.8,3.89-8.7,8.7-8.7h0s200.01,0,200.01,0v-17.39h-51.44L158.17,82.65c-.4-.45-.86-.86-1.35-1.22l-.48-.7c-1.39-1.34-3.24-2.1-5.18-2.13-2.16.05-4.22.96-5.7,2.54-1.48,1.58-2.26,3.69-2.17,5.85-.04.44-.04.87,0,1.3v138.48c0,2.31.92,4.52,2.55,6.15,1.63,1.63,3.84,2.55,6.15,2.55,5.99,0,11.76,2.21,16.24,6.18,4.47,3.98,7.34,9.46,8.04,15.4.71,5.95-.79,11.95-4.2,16.86-3.42,4.92-8.52,8.41-14.33,9.82-5.82,1.41-11.95.64-17.24-2.16-5.29-2.8-9.37-7.45-11.46-13.06-1.02-2.78-1.54-5.73-1.52-8.7,0-4.8-3.89-8.7-8.7-8.7s-8.7,3.89-8.7,8.7c-.01,5.02.89,10,2.66,14.7,5.19,13.86,17.31,23.96,31.89,26.55,14.57,2.59,29.43-2.71,39.08-13.94,9.65-11.23,12.65-26.71,7.89-40.73-4.75-14.02-16.55-24.49-31.04-27.53v-105.79l118.27,164.4h-61.66c-4.61,0-9.04,1.83-12.3,5.09-3.26,3.26-5.09,7.69-5.09,12.3v129.78c0,4.61,1.83,9.04,5.09,12.3,3.26,3.26,7.69,5.09,12.3,5.09h37.61c2.88,21.57,16.09,40.39,35.4,50.42,19.31,10.04,42.3,10.04,61.6,0,19.31-10.04,32.51-28.84,35.4-50.41h38.7v-17.39l-38.83-.12s0-.04,0-.07v-1.35c-3.15-21.31-16.38-39.79-35.54-49.64-19.16-9.84-41.89-9.84-61.05,0-19.16,9.85-32.39,28.33-35.54,49.64v1.35h-29.05c-4.8,0-8.7-3.89-8.7-8.7v-53.25Zm-6-208.83l137.23,123.78h-48.22l-89.01-123.78Zm61.05,270.96h0s.26-1.35.26-1.35c3.09-14.97,12.94-27.66,26.66-34.39,13.73-6.73,29.79-6.73,43.52,0,13.72,6.73,23.56,19.42,26.66,34.39l.23,1.18h-.36c.5,2.87.75,5.78.74,8.69,0,2.52-.18,5.04-.57,7.52v1.35h.39v.16c-2.8,15.3-12.63,28.39-26.53,35.34-13.91,6.95-30.28,6.95-44.2,0-13.91-6.95-23.74-20.04-26.54-35.34-.22-1.13-.35-2.26-.48-3.39v-5.65c-.17-2.84-.1-5.69.22-8.52Z"/>
      </g>
    </g>
  </svg>
</symbol>

<symbol id="hamburger">
 <svg xmlns:xlink="http://www.w3.org/1999/xlink" xmlns="http://www.w3.org/2000/svg" viewBox="0 0 500 434.2">
      <g>
        <path d="m468.36,63.29H31.64C14.21,63.18.1,49.08,0,31.64h0C.1,14.21,14.21.1,31.64,0h436.71c17.43.1,31.54,14.21,31.64,31.64h0c0,17.48-14.17,31.64-31.64,31.64Z"></path>
        <path d="m468.36,434.2H31.64c-17.43-.1-31.54-14.21-31.64-31.64h0c.1-17.43,14.21-31.54,31.64-31.64h436.71c17.43.1,31.54,14.21,31.64,31.64h0c0,17.48-14.17,31.64-31.64,31.64Z"></path>
        <path d="m468.36,248.74H31.64c-17.43-.1-31.54-14.21-31.64-31.64h0c.1-17.43,14.21-31.54,31.64-31.64h436.71c17.43.1,31.54,14.21,31.64,31.64h0c0,17.48-14.17,31.64-31.64,31.64Z"></path>
      </g>
  </svg>
</symbol>

</svg>