<svg xmlns:xlink="http://www.w3.org/1999/xlink" xmlns="http://www.w3.org/2000/svg" id="Layer_2" data-name="Layer 2" viewBox="0 0 480.5 398.06" width="480.5"  height="398.06" >
      <g id="Layer_1-2" data-name="Layer 1">
        <g id="Icon_feather-twitter" data-name="Icon feather-twitter">
          <path d="m164.13,398.06c-.41,0-.81,0-1.22,0-52.56-.22-105.9-14.53-154.25-41.39-6.81-3.79-10.14-11.75-8.03-19.26s9.07-12.59,16.88-12.27c36.71,1.47,73.59-6.55,106.45-22.81C45.25,256.38,25.15,189.79,22.87,139.62c-2.69-59.14,18.31-107.14,19.2-109.15,2.46-5.54,7.72-9.33,13.75-9.92,6.03-.59,11.92,2.12,15.41,7.08,35.37,50.37,91.39,81.23,152.19,84.61v-3.13c-.39-31.73,13.11-61.86,37.06-82.69,41.95-36.49,104.35-34.69,144.17,2.38,17.44-6.2,33.91-14.72,49.09-25.4,2.31-1.69,5.06-2.8,8.04-3.13,7.02-.79,13.79,2.88,16.94,9.2,1.87,3.74,2.23,7.87,1.26,11.68-6.96,28.46-20.97,54.61-40.71,76.12.39,3.68.59,7.38.61,11.07,0,56.89-12.48,108.22-37.08,152.62-22.83,41.19-56.19,75.49-96.49,99.21-42.17,24.81-91.31,37.91-142.18,37.91Zm-80.29-45.82c26.05,7.91,52.76,12.04,79.21,12.15.36,0,.72,0,1.08,0,44.87,0,88.11-11.49,125.1-33.26,35.12-20.66,64.21-50.58,84.12-86.51,21.81-39.34,32.86-85.18,32.86-136.24-.02-4.55-.46-9.18-1.33-13.7-1.05-5.52.71-11.2,4.71-15.14,7.46-7.35,14.03-15.48,19.61-24.21-7.97,3.39-16.13,6.34-24.47,8.85-6.34,1.91-13.21-.07-17.55-5.07-26.83-30.85-73.77-34.12-104.62-7.29-16.49,14.34-25.78,35.1-25.49,56.95,0,.08,0,.15,0,.23v20.31c0,9.13-7.27,16.59-16.4,16.83-67.58,1.75-131.64-25.59-176.87-74.28-4.44,17.35-8.6,41.29-7.26,67.34,3.42,66.67,40.19,116.05,109.29,146.76,5.58,2.48,9.39,7.8,9.93,13.89.54,6.09-2.26,11.99-7.31,15.42-25.65,17.41-54.5,29.92-84.62,36.98Z"></path>
        </g>
      </g>
    </svg>