<svg xmlns:xlink="http://www.w3.org/1999/xlink" xmlns="http://www.w3.org/2000/svg" viewBox="0 0 499.65 407.12" width="499.65"  height="407.12" >
      <g id="a">
        <g id="b">
          <g id="c">
            <path d="M499.64,64.53c0-.07,0-.15,0-.22C499.32,28.91,470.38,.11,434.88,0H64.72C29.3,.11,.38,28.86,.01,64.27c0,.1,0,.19,0,.29,0,.07,0,.14,0,.21V342.41c.1,35.58,29.13,64.61,64.77,64.72H434.93c35.58-.11,64.62-29.13,64.72-64.77V64.72c0-.06,0-.12,0-.18ZM64.82,37.01H434.83c12.27,.03,22.72,8.07,26.39,19.12L249.82,204.1,38.44,56.13c3.69-11.06,14.12-19.09,26.39-19.12ZM434.88,370.11H64.82c-15.3-.04-27.77-12.52-27.81-27.76V100.31L239.22,241.85c3.18,2.22,6.89,3.34,10.61,3.34s7.43-1.12,10.61-3.34L462.64,100.31v241.99c-.05,15.29-12.51,27.78-27.76,27.81Z"></path>
          </g>
        </g>
      </g>
    </svg>