<svg xmlns:xlink="http://www.w3.org/1999/xlink" xmlns="http://www.w3.org/2000/svg" viewBox="0 0 0 0" width="100"  height="100" >
  <symbol id="svg_ico_instagram">
    <svg xmlns="http://www.w3.org/2000/svg" id="Layer_1" data-name="Layer 2" viewBox="0 0 400 480">
      <g id="Layer_1-2" data-name="Layer 1">
        <path id="Icon_awesome-instagram" data-name="Icon awesome-instagram" d="m209.32,101.94c-59.25,0-107.28,48.03-107.28,107.28s48.03,107.28,107.28,107.28,107.28-48.03,107.28-107.28c.1-59.15-47.78-107.18-106.93-107.28-.12,0-.23,0-.35,0Zm0,177.03c-38.52,0-69.74-31.23-69.74-69.74s31.23-69.74,69.74-69.74,69.74,31.23,69.74,69.74h0c-.07,38.49-31.26,69.67-69.74,69.74h0Zm136.69-181.42c0,13.82-11.2,25.02-25.02,25.03s-25.02-11.2-25.03-25.02c0-13.82,11.2-25.02,25.02-25.03h0c13.79-.03,24.99,11.12,25.02,24.91,0,.04,0,.08,0,.12Zm71.05,25.4c-1.59-33.52-9.24-63.21-33.8-87.67C358.8,10.81,329.11,3.16,295.59,1.47,261.04-.49,157.5-.49,122.95,1.47c-33.43,1.59-63.12,9.24-87.67,33.71C10.72,59.65,3.16,89.34,1.47,122.86c-1.97,34.55-1.97,138.09,0,172.64,1.59,33.52,9.24,63.21,33.8,87.67s54.15,32.12,87.67,33.8c34.55,1.97,138.09,1.97,172.64,0,33.52-1.59,63.21-9.24,87.67-33.8,24.46-24.46,32.12-54.15,33.8-87.67,1.97-34.55,1.97-138,0-172.55h0Zm-44.63,209.62c-7.18,18.2-21.58,32.6-39.78,39.78-27.54,10.92-92.9,8.4-123.34,8.4s-95.89,2.43-123.34-8.4c-18.2-7.18-32.6-21.58-39.78-39.78-10.92-27.54-8.4-92.9-8.4-123.34s-2.43-95.89,8.4-123.34c7.18-18.2,21.58-32.6,39.78-39.78,27.54-10.92,92.9-8.4,123.34-8.4s95.89-2.43,123.34,8.4c18.2,7.18,32.6,21.58,39.78,39.78,10.92,27.54,8.4,92.9,8.4,123.34s2.52,95.89-8.4,123.35Z"></path>
      </g>
    </svg>
  </symbol>

  <symbol id="svg_ico_facebook">
    <svg xmlns="http://www.w3.org/2000/svg" id="Layer_2" data-name="Layer 2" viewBox="0 0 246.65 418.45">
      <g id="Layer_1-2" data-name="Layer 1">
        <g id="Icon_feather-facebook" data-name="Icon feather-facebook">
          <path d="m151.96,418.45h-76.35c-10.13,0-18.34-8.21-18.34-18.34v-134.37H18.34c-10.13,0-18.34-8.21-18.34-18.34v-76.36c0-10.13,8.21-18.34,18.34-18.34h38.93v-38.93C57.27,51.04,108.31,0,171.05,0h57.27c10.13,0,18.34,8.21,18.34,18.34v76.35c0,10.13-8.21,18.34-18.34,18.34h-57.27c-.41,0-.75.34-.75.75v38.93h58.02c5.65,0,10.98,2.6,14.45,7.05,3.47,4.45,4.7,10.25,3.34,15.73l-19.09,76.35c-2.04,8.16-9.38,13.89-17.79,13.89h-38.93v134.37c0,10.13-8.21,18.34-18.34,18.34Zm-58.02-36.67h39.68v-134.37c0-10.13,8.21-18.34,18.34-18.34h42.95l9.92-39.68h-52.87c-10.13,0-18.34-8.21-18.34-18.34v-57.27c0-20.64,16.79-37.43,37.43-37.43h38.93v-39.68h-38.93c-42.52,0-77.11,34.59-77.11,77.11v57.27c0,10.13-8.21,18.34-18.34,18.34h-38.93v39.68h38.93c10.13,0,18.34,8.21,18.34,18.34v134.37Z"></path>
        </g>
      </g>
    </svg>
  </symbol>

  <symbol id="svg_ico_twitter">
    <svg xmlns="http://www.w3.org/2000/svg" id="Layer_2" data-name="Layer 2" viewBox="0 0 480.5 398.06">
      <g id="Layer_1-2" data-name="Layer 1">
        <g id="Icon_feather-twitter" data-name="Icon feather-twitter">
          <path d="m164.13,398.06c-.41,0-.81,0-1.22,0-52.56-.22-105.9-14.53-154.25-41.39-6.81-3.79-10.14-11.75-8.03-19.26s9.07-12.59,16.88-12.27c36.71,1.47,73.59-6.55,106.45-22.81C45.25,256.38,25.15,189.79,22.87,139.62c-2.69-59.14,18.31-107.14,19.2-109.15,2.46-5.54,7.72-9.33,13.75-9.92,6.03-.59,11.92,2.12,15.41,7.08,35.37,50.37,91.39,81.23,152.19,84.61v-3.13c-.39-31.73,13.11-61.86,37.06-82.69,41.95-36.49,104.35-34.69,144.17,2.38,17.44-6.2,33.91-14.72,49.09-25.4,2.31-1.69,5.06-2.8,8.04-3.13,7.02-.79,13.79,2.88,16.94,9.2,1.87,3.74,2.23,7.87,1.26,11.68-6.96,28.46-20.97,54.61-40.71,76.12.39,3.68.59,7.38.61,11.07,0,56.89-12.48,108.22-37.08,152.62-22.83,41.19-56.19,75.49-96.49,99.21-42.17,24.81-91.31,37.91-142.18,37.91Zm-80.29-45.82c26.05,7.91,52.76,12.04,79.21,12.15.36,0,.72,0,1.08,0,44.87,0,88.11-11.49,125.1-33.26,35.12-20.66,64.21-50.58,84.12-86.51,21.81-39.34,32.86-85.18,32.86-136.24-.02-4.55-.46-9.18-1.33-13.7-1.05-5.52.71-11.2,4.71-15.14,7.46-7.35,14.03-15.48,19.61-24.21-7.97,3.39-16.13,6.34-24.47,8.85-6.34,1.91-13.21-.07-17.55-5.07-26.83-30.85-73.77-34.12-104.62-7.29-16.49,14.34-25.78,35.1-25.49,56.95,0,.08,0,.15,0,.23v20.31c0,9.13-7.27,16.59-16.4,16.83-67.58,1.75-131.64-25.59-176.87-74.28-4.44,17.35-8.6,41.29-7.26,67.34,3.42,66.67,40.19,116.05,109.29,146.76,5.58,2.48,9.39,7.8,9.93,13.89.54,6.09-2.26,11.99-7.31,15.42-25.65,17.41-54.5,29.92-84.62,36.98Z"></path>
        </g>
      </g>
    </svg>
  </symbol>

  <symbol id="svg_ico_linkedin">
    <svg xmlns="http://www.w3.org/2000/svg" id="Layer_2" data-name="Layer 2" viewBox="0 0 418.93 418.45">
      <g id="Layer_1-2" data-name="Layer 1">
        <g id="Icon_awesome-linkedin-in" data-name="Icon awesome-linkedin-in">
          <path d="m406.91,418.45h-81.72c-6.64,0-12.02-5.38-12.02-12.02v-128.18c0-12.67,0-30.02-4.71-41.89-2.05-5.16-4.78-8.88-8.36-11.38-4.23-2.95-10.11-4.44-17.48-4.44-8.08,0-14.74,1.42-19.8,4.22-4.25,2.35-7.57,5.77-10.15,10.45-6.33,11.48-7.06,28.81-7.06,40.84v130.38c0,6.64-5.38,12.02-12.02,12.02h-81.61c-6.64,0-12.02-5.38-12.02-12.02V143.11c0-6.64,5.38-12.02,12.02-12.02h78.42c6.64,0,12.02,5.38,12.02,12.02v4.55c4.98-4.23,10.4-7.97,16.17-11.15,15.46-8.51,32.95-12.68,50.58-12.07,10.82.01,20.94.92,30.06,2.7,9.14,1.79,17.59,4.5,25.11,8.08,14.53,6.91,26.24,17.31,34.8,30.92,7.54,11.97,12.75,26.37,15.94,44.01,2.6,14.39,3.86,31.26,3.86,51.57v144.69c0,6.64-5.38,12.02-12.02,12.02Zm-69.7-24.04h57.68v-132.67c0-18.86-1.14-34.33-3.48-47.3-2.63-14.55-6.76-26.16-12.62-35.48-6.19-9.83-14.3-17.03-24.79-22.02-11.79-5.61-26.95-8.45-45.05-8.45-.15,0-.29,0-.44,0-27.29-1-52.78,13.03-66.54,36.61-2.15,3.69-6.11,5.96-10.38,5.96h-1.19c-6.64,0-12.02-5.38-12.02-12.02v-23.9h-54.38v239.27h57.57v-118.36c0-15.93,1.14-36.28,10.04-52.44,4.76-8.64,11.34-15.33,19.57-19.88,8.66-4.79,19.24-7.23,31.44-7.23s22.88,2.95,31.22,8.76c7.47,5.21,13.18,12.69,16.97,22.24,6.4,16.13,6.4,36.14,6.4,50.75v116.16Zm-236.46,24.04H18.98c-6.64,0-12.02-5.38-12.02-12.02V143.11c0-6.64,5.38-12.02,12.02-12.02h81.77c6.64,0,12.02,5.38,12.02,12.02v263.31c0,6.64-5.38,12.02-12.02,12.02Zm-69.75-24.04h57.73v-239.27H31v239.27ZM59.59,119.2c-7.94,0-15.65-1.54-22.93-4.58-7.11-2.97-13.51-7.23-19-12.68-5.5-5.44-9.82-11.8-12.86-18.88C1.65,75.72.04,67.92,0,59.88s1.5-15.85,4.58-23.22c2.97-7.11,7.23-13.51,12.68-19,5.44-5.5,11.8-9.82,18.88-12.86C43.48,1.65,51.28.04,59.32,0c.1,0,.19,0,.29,0,7.94,0,15.65,1.54,22.93,4.58,7.11,2.97,13.51,7.23,19,12.68,5.5,5.44,9.82,11.8,12.86,18.88,3.15,7.34,4.76,15.14,4.8,23.18,0,.02,0,.04,0,.06.01,15.88-6.14,30.84-17.31,42.12-11.18,11.28-26.08,17.57-41.96,17.7-.01,0-.03,0-.04,0-.1,0-.19,0-.29,0Zm.01-95.16c-.06,0-.11,0-.17,0-9.5.04-18.41,3.79-25.09,10.53-6.68,6.75-10.34,15.69-10.3,25.19.04,9.5,3.79,18.41,10.53,25.09,6.71,6.64,15.59,10.3,25.02,10.3.05,0,.1,0,.15,0,9.48-.09,18.38-3.84,25.06-10.58,6.68-6.74,10.35-15.67,10.35-25.16-.1-19.54-16.03-35.38-35.56-35.38Z"></path>
        </g>
      </g>
    </svg>
  </symbol>

  <symbol id="svg_ico_youtube">
    <svg xmlns="http://www.w3.org/2000/svg" id="Layer_2" data-name="Layer 2" viewBox="0 0 500.96 356.05">
      <g id="Layer_1-2" data-name="Layer 1">
        <g>
          <path d="m214.27,256.25c-5.35,0-10.69-1.43-15.35-4.28-8.68-5.28-14.1-14.87-14.15-25.04v-97.74c0-10.19,5.4-19.83,14.1-25.15,8.69-5.32,19.73-5.74,28.81-1.11l49.6,25.52,45.27,23.32c9.89,5.07,16.03,15.13,16.03,26.24s-6.15,21.17-16.04,26.25l-45.26,23.32-49.35,25.32c-.08.04-.17.09-.25.13-4.19,2.14-8.8,3.2-13.4,3.2Zm.49-126.21v95.91l48.79-25.04,44.42-22.88-44.44-22.89-48.77-25.1Zm94.08,48.44h.01-.01Z"></path>
          <path d="m406.26,356.05H94.7c-24.63,0-48.54-11.09-67.33-31.24C10.23,306.43,0,282.71,0,261.35V94.7C0,42.48,42.48,0,94.7,0h311.56c24.63,0,48.54,11.09,67.33,31.24,17.14,18.38,27.38,42.1,27.38,63.46v166.65c0,52.22-42.48,94.7-94.7,94.7ZM94.7,30c-35.68,0-64.7,29.02-64.7,64.7v166.65c0,13.75,7.4,30.23,19.31,43,7.56,8.1,23.51,21.7,45.39,21.7h311.56c35.68,0,64.7-29.03,64.7-64.7V94.7c0-13.75-7.4-30.23-19.31-43-7.56-8.1-23.5-21.7-45.39-21.7H94.7Z"></path>
        </g>
      </g>
    </svg>
  </symbol>



  <symbol id="svg_ico_call">
    <svg xmlns="http://www.w3.org/2000/svg" id="Layer_2" data-name="Layer 2" viewBox="0 0 470.8 470.45">
      <g id="Layer_1-2" data-name="Layer 1">
        <g id="c">
          <g id="d">
            <path d="m431.37,470.45h-1.1c-.4,0-.8,0-1.3-.1-74.17-7.99-146.44-33.74-209.22-74.27-57.9-36.83-108.2-87.04-145.14-145.14C33.89,188.26,8.14,115.99.15,41.92v-.3c-.9-10.08,2.2-19.76,8.68-27.45C15.72,5.99,25.81,1,37.19.1c.4,0,.8-.1,1.2-.1h74.86c18.97,0,35.24,13.97,37.83,32.54v.2c3.19,24.46,9.28,48.71,17.97,72.07,5.19,13.87,1.8,29.65-8.58,40.13l-31.54,31.54c-3.59,3.59-4.39,9.18-1.8,13.58,36.33,63.69,89.24,116.49,153.02,152.72,1.7.9,3.59,1.4,5.49,1.4,3.09,0,5.89-1.2,8.09-3.29l31.44-31.44c7.19-7.19,16.77-11.08,26.95-11.08,4.69,0,9.28.8,13.68,2.5,22.16,8.38,46.32,14.37,71.97,17.87,19.07,2.6,33.24,19.17,33.04,38.63-.2,18.37,0,74.17,0,74.67,0,10.28-3.89,19.86-11.18,27.15-7.19,7.19-17.47,11.28-28.25,11.28Z"></path>
          </g>
        </g>
      </g>
    </svg>
  </symbol>

  <symbol id="svg_ico_call-hollow">
    <svg xmlns="http://www.w3.org/2000/svg" viewBox="0 0 499.95 499.87">
      <g id="a">
        <g id="b">
         <g id="c">
          <g id="d">
            <path d="M430.63,499.87c-2.26,0-4.47-.09-6.68-.31-73.45-7.97-144.86-33.3-206.67-73.31-57.29-36.31-106.99-85.92-143.52-143.31C33.61,221.2,8.16,149.61,.28,76.06-3.15,37.47,25.14,3.67,63.29,.28c2.14-.19,4.21-.28,6.28-.28h68.82c34.2,0,63.69,25.54,68.58,59.67,2.66,20.16,7.55,39.82,14.61,58.71,9.48,25.26,3.29,54.03-15.78,73.19l-15.59,15.59c26.34,40.92,61.22,75.73,102.19,101.98l15.57-15.57c19.36-19.07,48.12-25.21,73.43-15.73,18.79,7.01,38.5,11.9,58.49,14.54,35.04,4.87,60.75,35,60.05,70.16v67.74c.05,18.49-7.13,35.96-20.23,49.13-13.08,13.15-30.53,20.44-49.09,20.46ZM138.16,48.17H69.57c-13.74,1.13-22.39,11.5-21.36,23.21,7.03,65.6,29.87,129.88,66.04,185.5,32.88,51.65,77.45,96.13,128.98,128.79,55.74,36.08,119.88,58.85,185.69,65.97,6.63,.16,12.63-2.19,16.63-6.23,4.02-4.02,6.23-9.38,6.21-15.08v-68.65c.28-10.82-7.62-20.09-18.35-21.59-23.4-3.08-46.64-8.84-68.89-17.12-7.88-3.03-16.72-1.08-22.63,4.77l-28.79,28.79c-7.67,7.64-19.52,9.22-28.91,3.93-60.59-34.39-110.83-84.53-145.33-145.05-5.36-9.43-3.76-21.29,3.9-28.95l28.91-28.91c5.79-5.81,7.67-14.58,4.77-22.3-8.33-22.32-14.14-45.53-17.22-69.03-1.46-10.23-10.54-18.06-21.1-18.06Z"></path>
          </g>
        </g>
      </g>
     </g>
    </svg>
  </symbol>

  <symbol id="svg_ico_mail">
    <svg xmlns="http://www.w3.org/2000/svg" viewBox="0 0 499.65 407.12">
      <g id="a">
        <g id="b">
          <g id="c">
            <path d="M499.64,64.53c0-.07,0-.15,0-.22C499.32,28.91,470.38,.11,434.88,0H64.72C29.3,.11,.38,28.86,.01,64.27c0,.1,0,.19,0,.29,0,.07,0,.14,0,.21V342.41c.1,35.58,29.13,64.61,64.77,64.72H434.93c35.58-.11,64.62-29.13,64.72-64.77V64.72c0-.06,0-.12,0-.18ZM64.82,37.01H434.83c12.27,.03,22.72,8.07,26.39,19.12L249.82,204.1,38.44,56.13c3.69-11.06,14.12-19.09,26.39-19.12ZM434.88,370.11H64.82c-15.3-.04-27.77-12.52-27.81-27.76V100.31L239.22,241.85c3.18,2.22,6.89,3.34,10.61,3.34s7.43-1.12,10.61-3.34L462.64,100.31v241.99c-.05,15.29-12.51,27.78-27.76,27.81Z"></path>
          </g>
        </g>
      </g>
    </svg>
  </symbol>



</svg>