<svg xmlns:xlink="http://www.w3.org/1999/xlink" xmlns="http://www.w3.org/2000/svg" class="lozad" style="width:40.516px;  height: 30px; margin-right:20.800px; padding-top:5px;  fill: #ddd;" alt="youtube icon" data-loaded="true" width="500.96"  height="356.05" ><defs><symbol id="svg_ico_youtube">
    <svg xmlns="http://www.w3.org/2000/svg" id="Layer_2" data-name="Layer 2" viewBox="0 0 500.96 356.05">
      <g id="Layer_1-2" data-name="Layer 1">
        <g>
          <path d="m214.27,256.25c-5.35,0-10.69-1.43-15.35-4.28-8.68-5.28-14.1-14.87-14.15-25.04v-97.74c0-10.19,5.4-19.83,14.1-25.15,8.69-5.32,19.73-5.74,28.81-1.11l49.6,25.52,45.27,23.32c9.89,5.07,16.03,15.13,16.03,26.24s-6.15,21.17-16.04,26.25l-45.26,23.32-49.35,25.32c-.08.04-.17.09-.25.13-4.19,2.14-8.8,3.2-13.4,3.2Zm.49-126.21v95.91l48.79-25.04,44.42-22.88-44.44-22.89-48.77-25.1Zm94.08,48.44h.01-.01Z"></path>
          <path d="m406.26,356.05H94.7c-24.63,0-48.54-11.09-67.33-31.24C10.23,306.43,0,282.71,0,261.35V94.7C0,42.48,42.48,0,94.7,0h311.56c24.63,0,48.54,11.09,67.33,31.24,17.14,18.38,27.38,42.1,27.38,63.46v166.65c0,52.22-42.48,94.7-94.7,94.7ZM94.7,30c-35.68,0-64.7,29.02-64.7,64.7v166.65c0,13.75,7.4,30.23,19.31,43,7.56,8.1,23.51,21.7,45.39,21.7h311.56c35.68,0,64.7-29.03,64.7-64.7V94.7c0-13.75-7.4-30.23-19.31-43-7.56-8.1-23.5-21.7-45.39-21.7H94.7Z"></path>
        </g>
      </g>
    </svg>
  </symbol></defs>
                     <use xlink:href="#svg_ico_youtube" fill="#DDDDDD"></use>
                  </svg>